<?xml version="1.0" standalone="no"?>
<!DOCTYPE svg PUBLIC "-//W3C//DTD SVG 1.1//EN" "http://www.w3.org/Graphics/SVG/1.1/DTD/svg11.dtd" >
<svg xmlns="http://www.w3.org/2000/svg">
<metadata></metadata>
<defs>
<font id="salsaregular" horiz-adv-x="1130" >
<font-face units-per-em="2048" ascent="1638" descent="-410" />
<missing-glyph horiz-adv-x="577" />
<glyph unicode="&#xfb01;" horiz-adv-x="1210" d="M10 872.5q0 49.5 35 81t82 31.5t68 -2q10 231 168.5 392t400.5 161q190 0 323 -78q20 -35 20.5 -100.5t-48.5 -113.5t-120 -48t-109.5 40t-38.5 110q-29 14 -76 14q-102 0 -178 -45q-51 -55 -81 -153.5t-30 -192.5h109q84 0 213 21.5t191 21.5t109.5 -39t47.5 -101.5 t-21.5 -215t-21.5 -236.5q0 -229 43 -408q-63 -25 -137 -24.5t-117 34t-43 98t24.5 218.5t24.5 264.5t-10 200.5q-31 20 -119 20t-297 -6l20 -1069q0 -133 -157 -133q-53 0 -140 25q68 268 68 694q0 37 -18 479q-100 -6 -160 -35q-25 45 -25 94.5z" />
<glyph unicode="&#xfb02;" horiz-adv-x="1284" d="M10 872.5q0 49.5 35 81t82 31.5t68 -2q10 231 168.5 392t386 161t409.5 -106q-43 -393 -43 -745.5t47 -672.5q-66 -25 -139 -24q-158 0 -158 153q0 74 22.5 296t22.5 439.5t-26 405.5q-59 78 -166 78t-182 -45q-51 -55 -81 -153.5t-30 -192.5h47q123 0 281 43 q25 -41 24.5 -97.5t-47.5 -93.5t-119 -37q-2 0 -190 29l20 -1065q0 -133 -157 -133q-53 0 -140 25q68 268 68 694q0 37 -18 479q-100 -6 -160 -35q-25 45 -25 94.5z" />
<glyph unicode="&#xfb03;" horiz-adv-x="1820" d="M10 872.5q0 49.5 35 81t82 31.5t68 -2q10 225 157.5 379t370.5 154q166 0 256 -127q162 147 395 147q190 0 324 -78q20 -35 20 -100.5t-49 -113.5t-119.5 -48t-109.5 40t-39 110q-29 14 -76 14q-102 0 -178 -45q-51 -55 -81 -153.5t-30 -192.5h109q84 0 213 21.5 t191.5 21.5t109.5 -39t47 -101.5t-21.5 -215t-21.5 -236.5q0 -229 43 -408q-63 -25 -137 -24.5t-117 34t-43 98t24.5 218.5t24.5 264.5t-10 200.5q-31 20 -119 20t-297 -6l21 -1069q0 -133 -158 -133q-53 0 -139 25q67 268 67 694q0 43 -18 485q-254 0 -383 -4l20 -1067 q0 -133 -157 -133q-53 0 -140 25q68 268 68 694q0 37 -18 479q-100 -6 -160 -35q-25 45 -25 94.5zM426 977q121 -4 379 -4q2 104 41 203q-4 72 -49 117.5t-130 45.5t-151 -45q-90 -113 -90 -317z" />
<glyph unicode="&#xfb04;" horiz-adv-x="1894" d="M10 872.5q0 49.5 35 81t82 31.5t68 -2q10 225 157.5 379t370.5 154q82 0 151.5 -36t110.5 -94q160 150 381 150t403 -106q-43 -393 -43 -745.5t48 -672.5q-66 -25 -140 -24q-158 0 -157 153q0 74 22.5 296t22.5 439.5t-27 405.5q-59 78 -165.5 78t-182.5 -45 q-51 -55 -81 -153.5t-30 -192.5q170 0 328 43q25 -41 25 -97.5t-47.5 -93.5t-118.5 -37q-2 0 -191 29l21 -1065q0 -133 -158 -133q-53 0 -139 25q68 268 67 694q0 43 -18 485q-254 0 -383 -4l20 -1067q0 -133 -157 -133q-53 0 -140 25q68 268 68 694q0 37 -18 479 q-100 -6 -160 -35q-25 45 -25 94.5zM426 977q121 -4 379 -4q2 104 41 203q-4 72 -49 117.5t-130 45.5t-151 -45q-90 -113 -90 -317z" />
<glyph horiz-adv-x="0" />
<glyph unicode="&#xd;" horiz-adv-x="681" />
<glyph unicode=" "  horiz-adv-x="577" />
<glyph unicode="&#x09;" horiz-adv-x="577" />
<glyph unicode="&#xa0;" horiz-adv-x="577" />
<glyph unicode="!" horiz-adv-x="651" d="M154 1491q74 45 158.5 45t130.5 -38t46 -105.5t-27.5 -311t-27.5 -372.5t15 -217q-35 -25 -84.5 -25t-79 23.5t-29.5 66.5q0 246 -3 378t-27.5 302t-71.5 254zM209 127q0 64 33 119q66 31 133 30q123 0 123 -126q0 -68 -46 -115t-111 -47t-98.5 37.5t-33.5 101.5z" />
<glyph unicode="&#x22;" horiz-adv-x="929" d="M102 1165q76 135 76 269q0 47 -8 88q66 14 109 14q133 0 133 -115q0 -86 -81 -189.5t-161 -103.5q-43 0 -68 37zM518 1165q76 135 76 269q0 47 -8 88q63 14 108 14q133 0 133 -115q0 -86 -80.5 -189.5t-160.5 -103.5q-43 0 -68 37z" />
<glyph unicode="#" horiz-adv-x="1206" d="M30.5 452q0.5 40 29 65.5t77.5 25.5t156 -4q41 158 61 274q-113 -2 -215 -25q-23 35 -22.5 75t29 65.5t77.5 25.5t156 -4q35 213 37 377q49 16 98 16t82 -25.5t33 -78.5t-70 -301q135 -12 203 -12q41 229 43 413q49 16 98 16.5t82 -25t33 -77t-76 -325.5q117 6 211 26 q23 -35 23 -74.5t-29 -65.5t-74 -26q-109 0 -166 5l-24 -115q-12 -55 -33 -162q117 4 217 27q23 -35 23 -75t-29 -65.5t-74 -25.5q-104 0 -158 4q-27 -176 -45 -377q-45 -16 -96 -16q-121 0 -121 100q0 33 72 303q-131 8 -195 10q-33 -207 -49 -409q-45 -16 -96 -17 q-121 0 -121 101q0 37 78 325q-125 -8 -203 -24q-23 35 -22.5 75zM465 526q147 -12 207 -12q31 106 55 225l12 64q-137 8 -213 10q-28 -107 -61 -287z" />
<glyph unicode="$" horiz-adv-x="1191" d="M92 311q0 82 53.5 133.5t128 51.5t105.5 -17q-16 -76 -17 -100q0 -102 66 -158.5t172.5 -56.5t174 48t67.5 130t-54.5 134t-135.5 79t-175 60.5t-175 68.5t-135 103.5t-54 162.5q0 147 119.5 253t295.5 138l-14 179q37 16 79 16t69.5 -31.5t27.5 -80t-2 -68.5 q147 -6 256 -61.5t109 -168.5q0 -86 -60.5 -144t-148.5 -58q-27 0 -58 6q10 35 11 76q0 90 -49.5 127.5t-142.5 37.5t-161 -30q-57 -53 -57 -123t74 -114t178 -74.5t208.5 -70.5t178.5 -122t74 -203q0 -170 -125.5 -287.5t-315.5 -148.5q6 -145 19 -248q-49 -16 -84 -16 q-92 0 -92 80q0 84 6 176q-174 6 -295 89t-121 232z" />
<glyph unicode="%" horiz-adv-x="1763" d="M102 950q0 170 96.5 281.5t256.5 111.5q268 1 268 -335q0 -170 -94 -282t-256 -112q-270 0 -271 336zM297 963q0 -193 125 -193q55 0 80.5 72.5t25.5 158.5t-25.5 136.5t-84 50.5t-92.5 -29q-29 -86 -29 -196zM346 12q156 137 393 580q289 528 373 646t167 118t126 -47 q-150 -135 -373 -549q-299 -557 -385 -676t-170 -119t-131 47zM1040 324q0 170 96.5 281.5t256.5 111.5q268 0 268 -336q0 -170 -94 -281.5t-256 -111.5q-270 0 -271 336zM1235 336q0 -193 125 -193q55 0 80.5 73t25.5 159t-25.5 136t-84 50t-92.5 -29q-29 -86 -29 -196z " />
<glyph unicode="&#x26;" horiz-adv-x="1519" d="M82 340q0 229 221 414q-98 170 -98 299q0 176 146.5 303t332.5 127q127 0 203 -62.5t76 -179.5q0 -94 -36 -148.5t-55.5 -81t-65.5 -65.5t-67.5 -56.5t-79 -59.5t-73.5 -54q127 -190 383 -377q143 168 143 328q1 109 -22 211q49 16 115.5 16t117.5 -48t51 -134 q0 -240 -237 -481q213 -117 374 -117q0 -182 -174 -182q-162 0 -397 141q-244 -158 -479 -158q-182 0 -280.5 93.5t-98.5 271.5zM336 408q0 -227 223 -228q111 0 221 64q-236 180 -377 362q-68 -94 -67 -198zM461 1114.5q0 -96.5 51 -209.5q184 125 221 201q18 35 18.5 83 t-30.5 81t-95.5 33t-121.5 -33q-43 -59 -43 -155.5z" />
<glyph unicode="'" horiz-adv-x="520" d="M102 1167q74 162 80 369q121 0 178.5 -21.5t57.5 -91t-88 -181.5t-139.5 -112t-88.5 37z" />
<glyph unicode="(" horiz-adv-x="743" d="M113 717q-1 555 331 958q186 0 187 -135q0 -39 -31 -91t-74 -116.5t-87 -147.5t-74.5 -217t-30.5 -292q0 -473 282 -819q-45 -66 -104 -66q-88 0 -181 131t-155.5 349t-62.5 446z" />
<glyph unicode=")" horiz-adv-x="743" d="M113 -74q0 39 30.5 91.5t73.5 117t87 147.5t75 217t31 292q0 473 -283 819q45 66 104 65q88 0 181.5 -131t156 -349t62.5 -445q0 -556 -332 -959q-186 0 -186 135z" />
<glyph unicode="*" horiz-adv-x="991" d="M86 1071q18 113 45 165t82 52q80 0 229 -153q0 150 -53 309q82 10 111 10q139 0 139 -100q0 -92 -80 -232q180 72 277 146q59 -123 59 -178q0 -98 -156 -99q-74 0 -155 19q111 -143 223 -219q-123 -119 -180 -119q-49 0 -74 41q-39 72 -50 130t-22 109 q-111 -178 -137 -282q-170 88 -170 155q0 51 66.5 107.5t156.5 95.5q-168 43 -311 43z" />
<glyph unicode="+" horiz-adv-x="1067" d="M112.5 494.5q0.5 56.5 46.5 92.5t120 36q23 0 174 -19q0 201 -31 305q43 25 99.5 25t92 -46t35.5 -120q0 -6 -20 -176q195 2 301 31q25 -43 24.5 -99.5t-46.5 -92.5t-120 -36q-23 0 -174 19q0 -201 31 -305q-43 -25 -99.5 -25t-92 46t-35.5 120q0 6 20 176 q-195 -2 -301 -31q-25 43 -24.5 99.5z" />
<glyph unicode="," horiz-adv-x="550" d="M31 -283q158 145 157 349q0 100 -45 188q78 55 154 55q152 0 152 -192q0 -135 -106.5 -285.5t-225.5 -150.5q-47 -1 -86 36z" />
<glyph unicode="-" horiz-adv-x="993" d="M112.5 494.5q0.5 56.5 46.5 92.5t100 36t194.5 -16.5t242 -16.5t160.5 33q25 -43 25 -99.5t-46.5 -92.5t-100.5 -36t-194.5 16.5t-241.5 16.5t-161 -33q-25 43 -24.5 99.5z" />
<glyph unicode="." horiz-adv-x="526" d="M102 140.5q0 70.5 37 133.5q66 35 133 35q152 0 152 -141q0 -76 -51 -128t-123 -52t-110 41t-38 111.5z" />
<glyph unicode="/" horiz-adv-x="1198" d="M74 70q129 123 274 393q98 184 124 232t152 322.5t148 317.5q72 131 180.5 131t163.5 -77q-137 -162 -362 -613q-23 -45 -103 -207q-195 -389 -229 -448q-78 -133 -185.5 -133t-162.5 82z" />
<glyph unicode="0" horiz-adv-x="1253" d="M92 610q0 309 163 527.5t441 218.5q166 0 273.5 -92.5t149.5 -231.5t42 -323q0 -307 -161.5 -520.5t-442.5 -213.5q-166 0 -273.5 89.5t-149.5 225.5t-42 320zM362 631q0 -262 76 -369q70 -94 201 -94q74 0 126 50t77.5 134t37 166t11.5 176t-10.5 170t-36.5 148 q-57 152 -230 151q-109 0 -184 -84q-68 -162 -68 -448z" />
<glyph unicode="1" horiz-adv-x="823" d="M92 1053q115 47 246 164q63 57 118.5 98t136.5 41t138 -29q-49 -389 -49 -729t37 -586q-57 -25 -133 -24.5t-123 49.5t-47 132t32.5 349t34.5 578q-23 -20 -75 -82q-119 -137 -185.5 -137t-98.5 49t-32 127z" />
<glyph unicode="2" horiz-adv-x="1046" d="M90 159q0 77 63.5 162t153.5 159.5t179 150.5t152.5 168t63.5 175t-45 136t-122.5 53t-128.5 -43q-41 -61 -41 -140t12 -122q-41 -10 -68 -10q-82 0 -138 46t-56 124q0 150 139 244t309 94t280.5 -91t110.5 -251q0 -94 -59 -190.5t-143 -177.5t-170 -159 q-203 -182 -203 -307q322 4 549 103q25 -55 24.5 -125t-48.5 -120t-134 -50t-301 12t-332 12q-47 70 -47 147z" />
<glyph unicode="3" horiz-adv-x="1140" d="M92 229q0 82 55.5 131.5t139.5 49.5q45 0 80 -11q-14 -41 -15 -77q0 -74 55.5 -114t150.5 -40t156.5 60.5t61.5 158.5t-53 151.5t-141 53.5q-47 0 -81 25.5t-34 63.5t10 69q37 -6 74 -7q94 0 139 65.5t45 156t-45 144.5t-123 54t-131 -41q-39 -70 -38.5 -143.5 t12.5 -120.5q-41 -10 -68 -10q-82 0 -138.5 46t-56.5 124q0 150 139.5 244t310.5 94t280.5 -83t109.5 -241q0 -184 -164 -299q109 -35 167.5 -112.5t58.5 -182.5q0 -207 -170 -335t-400 -128q-158 0 -272.5 63.5t-114.5 190.5z" />
<glyph unicode="4" horiz-adv-x="1161" d="M51 530q295 451 578 752q66 74 148.5 74t146.5 -21q-45 -307 -45 -760q84 16 176 48q14 -45 14 -113t-49 -111t-137 -43q10 -207 39 -344q-66 -25 -134.5 -24.5t-110.5 44.5t-42 122q0 20 14 206q-330 4 -442 17q-156 16 -156 153zM279 559q100 -18 205.5 -18t177.5 6 q14 133 14 293.5t-6 232.5q-153 -160 -391 -514z" />
<glyph unicode="5" horiz-adv-x="1138" d="M92 229q0 82 55.5 131.5t139.5 49.5q45 0 80 -11q-14 -41 -15 -77q0 -74 54.5 -114t149.5 -40t156.5 67.5t61.5 178.5q0 233 -211 233q-39 0 -140 -21.5t-168 -21.5t-124 25q47 272 47 516q0 166 182 166q385 0 598 61q25 -82 25 -147.5t-48 -101.5t-121 -36t-216 15.5 t-174 17.5q-25 -113 -25 -323q147 31 226 30q188 0 305 -90t117 -262q0 -223 -167 -361.5t-403 -138.5q-158 0 -271.5 63.5t-113.5 190.5z" />
<glyph unicode="6" horiz-adv-x="1138" d="M92 514q0 231 64.5 414.5t210 305.5t346.5 122q131 0 219 -58.5t88 -171.5q0 -80 -55.5 -128t-121 -48t-98.5 11q14 41 15 77q0 125 -121 125q-94 0 -176 -59q-45 -70 -74 -190t-29 -218q135 111 311.5 111t276 -88t99.5 -244q0 -207 -148.5 -353.5t-364 -146.5t-329 154 t-113.5 385zM354 522q0 -354 209 -354q94 0 152.5 71.5t58.5 171t-48 158t-140 58.5q-132 -1 -232 -105z" />
<glyph unicode="7" horiz-adv-x="1024" d="M92 1225.5q0 58.5 27 124.5q145 -31 366 -31q66 0 188 13.5t183.5 13.5t94 -29t32.5 -104.5t-53 -181t-182.5 -308.5t-185.5 -362.5t-56 -346.5q-63 -27 -133 -26.5t-114 33t-44 105.5t76 217t172 278q260 367 301 526q-82 -6 -254 -36t-248 -30t-123 43t-47 101.5z" />
<glyph unicode="8" horiz-adv-x="1193" d="M92 328q0 119 64.5 219t183.5 162q-180 94 -180 264t159.5 276.5t335.5 106.5t280.5 -79t104.5 -229.5t-168 -297.5q104 -41 167 -122t63 -194q0 -205 -165 -332t-371 -127t-340 93.5t-134 259.5zM352 373q0 -96 67.5 -151.5t172 -55.5t187.5 59.5t83 147.5t-71 146 t-304 126q-135 -109 -135 -272zM416 991q0 -115 309 -184q104 78 104 205q0 74 -54 112.5t-149.5 38.5t-174.5 -53q-35 -53 -35 -119z" />
<glyph unicode="9" horiz-adv-x="1138" d="M92 885q0 197 148.5 334t360.5 137t329 -150.5t117 -377t-67 -413t-211 -313.5t-337 -127q-129 0 -222 56.5t-93 165.5q0 78 56 125t120.5 47t97.5 -11q-14 -41 -14 -79q0 -111 121 -111q78 0 135 46t88 122q57 150 57 328q-139 -111 -313 -111t-273.5 88t-99.5 244z M365 948q0 -92 45 -153.5t125 -61.5q134 1 245 105q0 143 -53 234t-172 91q-76 0 -145 -47q-45 -76 -45 -168z" />
<glyph unicode=":" horiz-adv-x="526" d="M102 140.5q0 70.5 37 133.5q66 35 133 35q152 0 152 -141q0 -76 -51 -128t-123 -52t-110 41t-38 111.5zM102 767.5q0 70.5 37 133.5q66 35 133 35q152 0 152 -141q0 -76 -51 -128t-123 -52t-110 41t-38 111.5z" />
<glyph unicode=";" horiz-adv-x="571" d="M31 -283q158 145 157 349q0 100 -45 188q78 55 154 55q152 0 152 -192q0 -135 -106.5 -285.5t-225.5 -150.5q-47 -1 -86 36zM147 767q0 71 37 134q66 35 133 35q152 0 152 -141q0 -76 -51 -128.5t-123 -52.5t-110 41t-38 112z" />
<glyph unicode="&#x3c;" horiz-adv-x="1202" d="M92 608q18 10 185 90t227.5 111t183.5 96q223 115 342 205q80 -23 80 -93.5t-153.5 -174t-436.5 -254.5q281 -244 582 -371q-20 -82 -115 -82q-135 0 -400 147.5t-495 325.5z" />
<glyph unicode="=" horiz-adv-x="1075" d="M112.5 323.5q0.5 57.5 45.5 93.5t101 36t177 -15.5t259.5 -15.5t242.5 31q25 -41 25 -98.5t-45.5 -93.5t-101.5 -36t-170 15.5t-255 15.5t-254 -31q-25 41 -24.5 98.5zM112.5 663.5q0.5 57.5 45.5 93.5t101 36t177 -15.5t259.5 -15.5t242.5 31q25 -41 25 -98.5 t-45.5 -93.5t-101.5 -36t-170 15.5t-255 15.5t-254 -31q-25 41 -24.5 98.5z" />
<glyph unicode="&#x3e;" horiz-adv-x="1202" d="M92 228.5q0 70.5 153.5 174t436.5 254.5q-281 244 -582 371q20 82 115 82q135 0 400.5 -147.5t494.5 -325.5q-18 -10 -185 -90t-227.5 -110.5t-185.5 -96.5q-221 -115 -340 -205q-80 23 -80 93.5z" />
<glyph unicode="?" horiz-adv-x="1054" d="M113 1178q0 160 143 259t313 99t271.5 -79t101.5 -224q0 -88 -56.5 -178t-123 -152.5t-122.5 -147.5t-56 -165q0 -37 12 -80q-51 -39 -117.5 -39t-115 40t-48.5 102.5t37 122t88.5 109.5t103.5 101t89 114.5t37 133.5t-37 111t-109.5 41t-117 -66t-44.5 -144.5t13 -138.5 q-37 -10 -68 -10q-82 0 -138 54.5t-56 136.5zM315 124q0 65 33 120q61 33 119 32q137 0 137 -126q0 -68 -46 -115t-110.5 -47t-98.5 35.5t-34 100.5z" />
<glyph unicode="@" horiz-adv-x="1626" d="M72 690.5q0 325.5 223 552.5t548.5 227t518 -197.5t192.5 -514.5q0 -203 -92 -343.5t-268 -140.5q-129 0 -191.5 88.5t-62.5 235.5q-111 -246 -203 -299q-43 -25 -94 -25q-133 0 -199.5 88.5t-66.5 233.5q0 252 109.5 409.5t318.5 157.5t387 -57q-41 -195 -41 -416 q0 -88 28.5 -151.5t96.5 -63.5q119 0 119 244q0 281 -156 456t-426 175q-213 0 -397 -136q-84 -88 -134.5 -222t-50.5 -273q0 -276 141.5 -449.5t399.5 -173.5q121 0 199 43q23 -27 22 -61q0 -102 -262 -103q-303 0 -481 195t-178 520.5zM614 662q0 -74 27 -130.5t84 -56.5 q63 0 136 188.5t83 294.5q-82 23 -153.5 23t-124.5 -39q-51 -115 -52 -280z" />
<glyph unicode="A" horiz-adv-x="1259" d="M20 154q0 102 197 600t242 684q83 28 150 28h5q106 0 166 -74.5t92 -211.5q10 -41 42 -180.5t53 -225.5q63 -268 115.5 -415.5t166.5 -235.5q-25 -61 -81 -98t-121 -37q-150 0 -220 225q-33 104 -59 205q-72 -25 -177.5 -25t-258.5 23q-63 -248 -64 -373q0 -27 2 -39 q-27 -4 -90 -4t-111.5 40t-48.5 114zM379 588q82 -10 167 -10t181 18q-18 84 -125 643q-127 -329 -223 -651z" />
<glyph unicode="B" horiz-adv-x="1302" d="M123 94q63 221 63 597t-51 698q291 77 508 77h6q469 0 469 -325q0 -199 -186 -303q125 -31 207 -118t82 -218q0 -246 -182.5 -380t-451 -134t-464.5 106zM424 823q29 6 85 14.5t87 14.5t77 18.5t71.5 30t52.5 43.5q51 51 51 150q0 190 -227 190q-74 0 -181 -24 q-16 -421 -16 -437zM426 643q0 -207 18 -434q90 -29 181 -29q141 0 233 71t92 200q0 245 -264 245h-2q-127 0 -258 -53z" />
<glyph unicode="C" horiz-adv-x="1253" d="M51 686q0 328 187.5 560.5t506.5 232.5q178 0 311.5 -104.5t133.5 -270.5q0 -88 -49 -145.5t-121 -57.5t-115 19q6 33 6 69q-2 129 -63.5 210t-179 81t-217.5 -76q-59 -86 -92 -225t-33 -274q0 -225 87 -378t271 -153q170 0 229 129q55 113 56 299q104 0 173.5 -38 t69.5 -124q0 -201 -176 -333t-397 -132q-289 0 -438.5 191.5t-149.5 519.5z" />
<glyph unicode="D" horiz-adv-x="1343" d="M123 92q63 305 63 633t-51 664q275 77 489 77h5q319 0 486 -166.5t167 -506.5t-189.5 -572.5t-525.5 -232.5q-229 0 -444 104zM422 775.5q0 -234.5 22 -566.5q84 -29 188.5 -29t181.5 48t118 132q80 160 80 392q0 223 -86 368q-94 164 -293 164h-8q-104 0 -185 -24 q-18 -250 -18 -484.5z" />
<glyph unicode="E" horiz-adv-x="1132" d="M123 1454q152 -12 407.5 -12t489.5 37q25 -44 25 -105q0 -64 -49 -114q-48 -48 -118.5 -48t-225 20.5t-228.5 20.5q-16 -207 -18 -389q129 -12 277 -12t255 43q25 -45 25 -107.5t-48.5 -112.5t-115 -50t-197.5 25.5t-199 25.5q0 -324 15 -475q98 -8 153 -8q271 0 476 90 q25 -54 25 -122q0 -72 -49 -123q-48 -50 -118 -50q-217 0 -680 24q-37 2 -65.5 23.5t-28.5 54.5q0 109 17.5 367t17.5 482t-43 515z" />
<glyph unicode="F" horiz-adv-x="1075" d="M123 1454q152 -12 407.5 -12t489.5 37q25 -44 25 -105q0 -64 -49 -114q-48 -48 -118.5 -48t-225 20.5t-228.5 20.5q-16 -223 -21 -409q119 -12 263 -12q2 0 4 -1q142 0 248 43q25 -44 25 -105q0 -65 -49 -115q-48 -50 -113.5 -50t-188.5 25.5t-189 25.5q0 -395 43 -630 q-66 -25 -139.5 -25t-127.5 47t-54 130t20.5 314.5t20.5 358.5q0 313 -43 604z" />
<glyph unicode="G" horiz-adv-x="1300" d="M49 659q0 221 81 405.5t240.5 299.5t353.5 115t324 -90.5t130 -243.5q0 -86 -50.5 -144.5t-128 -58.5t-108.5 19q6 37 6 73q0 109 -61.5 177.5t-174 68.5t-212.5 -76q-59 -84 -92 -229.5t-33 -282.5q0 -221 86 -363.5t272 -142.5q137 0 256 80q8 80 8 230 q-82 -25 -127 -25q-112 0 -112 117q0 53 20 110q55 -18 129 -18l219 16q123 0 123 -125q0 -72 -18.5 -223t-18.5 -246q-51 -8 -228 -61t-296 -53q-291 0 -439.5 180t-148.5 491z" />
<glyph unicode="H" horiz-adv-x="1409" d="M123 1430q65 25 137 25q0 -1 2 -1q74 0 128 -47t54 -115.5t-5 -132t-13 -145.5t-12 -144q82 -8 282.5 -8t309.5 17q0 326 -43 563q65 25 137 25q0 -1 2 -1q74 0 128 -47t54 -130t-20.5 -294t-20.5 -338q0 -401 43 -645q-65 -25 -137 -25q-1 1 -3 1q-74 0 -127.5 47 t-53.5 125t16 254t20 241q-201 14 -598 15v-54q0 -362 43 -591q-66 -25 -139.5 -25t-127.5 47t-54 129t20.5 314.5t20.5 371.5q0 358 -43 568z" />
<glyph unicode="I" horiz-adv-x="569" d="M123 1430q65 25 137 25q0 -1 2 -1q74 0 128 -47t54 -129t-20.5 -314.5t-20.5 -371.5q0 -358 43 -567q-66 -25 -139.5 -25t-127.5 47t-54 129t20.5 314.5t20.5 371.5q0 358 -43 568z" />
<glyph unicode="J" horiz-adv-x="911" d="M0 193.5q0 91.5 50 149.5t126 58q37 0 68 -14q-15 -38 -15 -84t32 -85q32 -40 86 -40t92 40t57 114q45 166 45 423t-27 496q-33 0 -105.5 -15t-101.5 -15q-143 0 -143 145q-1 52 24 113q160 -25 469 -25q121 0 129 -129q12 -238 12 -428q1 -5 1 -11q0 -184 -17 -366 q-18 -227 -154 -385t-345 -158q-115 0 -199 62.5t-84 154z" />
<glyph unicode="K" horiz-adv-x="1310" d="M123 1430q65 25 137 25q0 -1 2 -1q74 0 128 -47t54 -129t-20.5 -314.5t-20.5 -371.5q0 -358 43 -567q-66 -25 -139.5 -25t-127.5 47t-54 129t20.5 314.5t20.5 371.5q0 358 -43 568zM453 827q203 88 346 273.5t143 365.5q88 0 152.5 -30.5t64.5 -98.5q0 -106 -127 -257.5 t-297 -280.5q106 -217 261 -403.5t290 -227.5q0 -86 -45 -133t-129 -47q-111 0 -255 154.5t-252.5 347t-151.5 337.5z" />
<glyph unicode="L" horiz-adv-x="1052" d="M123 1430q63 24 135 24h6q182 0 182 -166q0 -90 -20 -296t-20 -427t14 -366q55 -6 110 -6q270 0 476 90q25 -54 25 -122q0 -72 -49 -123q-48 -50 -118 -50q-145 0 -637 24q-39 2 -67.5 23.5t-28.5 54.5q0 109 17.5 367t17.5 476t-43 497z" />
<glyph unicode="M" horiz-adv-x="1765" d="M123 131q0 100 46 400t46 507t-22 387q111 29 172 29q113 0 151 -80q61 -129 181 -410.5t196 -433.5q20 43 95 185.5t125 244t102.5 241.5t66.5 245q74 20 144.5 20t119.5 -30.5t49 -96.5l-11 -338q0 -279 17 -498.5t74 -477.5q-45 -37 -143 -37q-190 0 -191 166 q0 137 13.5 419.5t13.5 442.5q-111 -160 -232.5 -394.5t-121.5 -287.5t10 -82q-45 -29 -120 -29t-125 41t-83.5 113t-118.5 281.5t-155 361.5q-53 -330 -53 -584t16 -411q-66 -25 -131 -25q-131 0 -131 131z" />
<glyph unicode="N" horiz-adv-x="1363" d="M123 159.5q0 65.5 19.5 274.5t19.5 316q0 408 -39 675q57 29 167.5 29t155.5 -88q303 -616 580 -1044q-6 393 -6 415q0 384 -49 697q65 33 136 33q1 -1 3 -1q72 0 118 -45t46 -108.5t-18.5 -279.5t-18.5 -343q0 -408 37 -678q-65 -25 -143 -25q-1 1 -3 1q-80 0 -127 26 q-131 76 -612 959q-8 -80 -8 -374t45 -574q-63 -25 -137 -25t-120 47t-46 112.5z" />
<glyph unicode="O" horiz-adv-x="1417" d="M61 691.5q0 320.5 192.5 554t490.5 233.5t455 -201t157 -522.5t-192.5 -551t-491.5 -229.5t-455 198t-156 518.5zM332 700q0 -242 98 -387t311 -145q117 0 199 94q145 170 145 483q0 244 -99 394.5t-310 150.5q-127 0 -225 -82q-55 -86 -87 -231.5t-32 -276.5z" />
<glyph unicode="P" horiz-adv-x="1210" d="M125 1389q228 78 472 78q2 -1 3 -1q246 0 407.5 -104.5t161.5 -319.5t-151.5 -361t-364.5 -146q-155 0 -155 117q0 38 14 79q55 -14 100 -14q141 0 214 77.5t73 216t-78 206t-217 67.5q-72 0 -174 -24q-16 -252 -16 -447q0 -545 43 -788q-66 -25 -139.5 -25t-128 47 t-54.5 125t20.5 271.5t20.5 310.5q0 356 -51 635z" />
<glyph unicode="Q" horiz-adv-x="1417" d="M61 686q0 330 192.5 561.5t490.5 231.5t455 -200t157 -507t-157 -512t-392 -258q20 -12 89 -51t88.5 -50.5t74.5 -39t83.5 -35.5t78.5 -23q71 -24 179 -24h9q0 -94 -45 -155.5t-129 -61.5t-164 36.5t-131 81t-138 126t-139.5 122.5t-199.5 92q-170 55 -286 223.5 t-116 442.5zM332 707q0 -242 98 -383.5t311 -141.5q117 0 199 92q145 166 145 478q0 244 -99 391t-310 147q-125 0 -225 -80q-55 -88 -87 -229t-32 -274z" />
<glyph unicode="R" horiz-adv-x="1306" d="M125 1391q272 75 520 75h6q457 0 457 -325q0 -143 -97.5 -269.5t-238.5 -175.5q92 -195 233.5 -340t280.5 -188q0 -86 -45 -133t-129 -47q-109 0 -248 140t-242.5 331.5t-121.5 337.5q147 0 242.5 78.5t95.5 224.5q0 184 -230 184q-74 0 -180 -24q-14 -276 -14 -447 q0 -545 43 -788q-66 -25 -139.5 -25t-128 47t-54.5 125t20.5 271.5t20.5 310.5q0 358 -51 637z" />
<glyph unicode="S" horiz-adv-x="1150" d="M82 330q0 86 52 144t125 58t108 -18q-16 -61 -17 -111q0 -111 62.5 -175t173 -64t178 57.5t67.5 152.5t-74.5 156.5t-181 98.5t-213 78t-181.5 121.5t-75 203.5q0 193 167 320t378 127q156 0 269.5 -62.5t113.5 -189.5q0 -92 -59.5 -156.5t-149.5 -64.5q-24 0 -55 6 q8 41 8 84q0 198 -192 198h-2q-88 0 -150 -37q-57 -68 -57 -161q0 -61 53 -105.5t132 -69t171 -61.5t171 -79t132.5 -125t53.5 -195q0 -215 -165 -350.5t-397 -135.5q-186 0 -316 93.5t-130 261.5z" />
<glyph unicode="T" d="M10 1303.5q0 58.5 47 107.5t119 49l432 -6q336 0 492 25q23 -42 23 -96q0 -57 -50 -102q-49 -44 -119 -44l-235 27q0 -14 -10 -127q-29 -276 -29 -555t43 -557q-68 -25 -141.5 -25t-127 42t-53.5 127t20.5 300t20.5 419t-20 380q-248 -12 -387 -70q-25 47 -25 105.5z" />
<glyph unicode="U" horiz-adv-x="1359" d="M119 1430q65 25 137 25q0 -1 2 -1q74 0 128 -47t54 -119q0 -154 -29.5 -405.5t-29.5 -389t73.5 -228.5t219.5 -91q59 0 143 28.5t133 73.5q27 227 27 585t-51 581q65 25 137 25q1 -1 3 -1q74 0 127.5 -47t53.5 -122.5t-17.5 -260t-17.5 -413t21 -402.5 q-299 -246 -606 -246q-233 0 -363.5 120t-130.5 347q0 72 13.5 259.5t13.5 273.5q0 309 -41 455z" />
<glyph unicode="V" horiz-adv-x="1269" d="M10 1319q25 61 81 98t132 37t125 -58.5t79 -142.5t52.5 -161.5t48 -192.5t41 -185.5t49 -241.5t50.5 -249q344 897 344 1198q0 27 -2 39q31 6 63 6q82 0 134.5 -40t52.5 -113q0 -102 -202 -605.5t-247 -691.5q-83 -28 -151 -28h-5q-104 0 -162.5 76.5t-95.5 218.5 q-8 31 -57 225q-96 381 -155.5 552t-174.5 259z" />
<glyph unicode="W" horiz-adv-x="1820" d="M10 1323q25 61 76 96t115 35q141 0 202 -213q43 -150 102.5 -507t88.5 -511q231 647 231 856q0 43 -10 60q43 49 122 49t123 -43t70.5 -138.5t74.5 -372t75 -411.5q82 258 130 416t100.5 397.5t52.5 386.5q0 27 -2 39q27 4 90 4t111 -40t48 -128t-64.5 -294.5 t-166 -502.5t-154.5 -501q-63 -25 -137 -25t-114.5 27t-67.5 80q-39 78 -88 265.5t-78 410.5q-172 -547 -197 -746q-87 -24 -156 -24h-5q-117 0 -172.5 85t-79.5 222q0 4 -31 172t-45 233q-47 240 -97.5 402t-146.5 221z" />
<glyph unicode="X" horiz-adv-x="1210" d="M10 170q0 57 54.5 130t192.5 220.5t220 243.5q-238 522 -465 522q0 78 45 123t123 45q137 0 259 -141.5t214 -366.5q217 240 238 520q258 0 258 -157q0 -57 -55.5 -128t-174 -192t-192.5 -209q63 -150 85 -190.5t55.5 -109t58 -100.5t57.5 -73t65.5 -58.5t65.5 -17.5 t62 13q25 -54 25 -110q0 -59 -47 -103q-46 -43 -112.5 -43t-128 41t-105.5 92t-95 145q-78 141 -156 322q-264 -317 -289 -588q-258 0 -258 170z" />
<glyph unicode="Y" horiz-adv-x="1189" d="M10 1348q49 106 180 106q244 0 461 -700q127 190 218.5 387.5t91.5 324.5q217 0 217 -114q0 -80 -98.5 -238t-212 -324.5t-134.5 -244.5q-6 -80 -6 -197t29 -323q-66 -25 -139.5 -25t-128 47t-54.5 120t25 372q-158 614 -449 809z" />
<glyph unicode="Z" horiz-adv-x="1136" d="M51 140q0 85 150.5 304.5t340 473t240.5 354.5q-55 -8 -174 -31q-244 -43 -340 -43q-194 0 -194 130q0 89 24 151q191 -41 422 -41l400 16q59 0 102 -30.5t43 -91t-91 -200t-207 -282.5t-238.5 -327.5t-172.5 -321.5q135 -8 209 -8q270 0 475 90q25 -55 25 -125t-48 -120 t-118 -50l-811 12q-37 55 -37 140z" />
<glyph unicode="[" horiz-adv-x="733" d="M113 -122q0 73 17 394.5t17 673.5t-22 690q45 16 94 17h94q184 0 287 20q20 -33 20.5 -77t-37.5 -86t-109 -42t-120 7q-2 -72 -14 -310.5t-12 -571.5t14 -630q125 0 238 47q20 -41 20 -95t-35 -90t-86 -36q-174 0 -286 10q-80 6 -80 79z" />
<glyph unicode="\" horiz-adv-x="1198" d="M74 1384q55 82 162.5 82t185.5 -133q35 -59 172 -334.5t149.5 -300t54.5 -107.5t56 -110.5t55 -102.5t68 -116q80 -127 139 -196q-55 -78 -163.5 -78t-180.5 131q-23 43 -148.5 317.5t-150 320.5t-66.5 125t-58.5 109.5t-59.5 103t-72 113.5q-77 113 -143 176z" />
<glyph unicode="]" horiz-adv-x="733" d="M113 -134q0 44 37.5 86t108.5 42t120 -6q2 72 14.5 310.5t12.5 571t-15 629.5q-124 0 -237 -47q-20 41 -20.5 95.5t34.5 90t86 35.5q174 0 287 -10q80 -6 80 -79t-17.5 -394.5t-17.5 -673.5t22 -690q-45 -16 -94 -16h-94q-184 0 -287 -21q-20 33 -20 77z" />
<glyph unicode="^" horiz-adv-x="1282" d="M92 401q0 111 195.5 311.5t429.5 360.5q154 -393 473 -674q-49 -100 -184 -100q-78 0 -170.5 115.5t-229.5 341.5q-250 -209 -340 -510q-80 12 -127 54t-47 101z" />
<glyph unicode="_" horiz-adv-x="1099" d="M72 -215q0 90 102 90l584 -29q160 0 248 29q23 -35 22 -76q0 -90 -102 -90l-580 27q-160 0 -252 -27q-23 35 -22 76z" />
<glyph unicode="`" horiz-adv-x="684" d="M102 1419q0 57 56.5 87t138.5 30q101 -185 285 -287q-16 -78 -84 -78q-90 0 -243 83t-153 165z" />
<glyph unicode="a" horiz-adv-x="1116" d="M41 391q0 262 145.5 460t377.5 198t478 -84q-55 -236 -55 -472.5t53 -467.5q-74 -25 -151.5 -25t-108 46t-30.5 133t26 239q-145 -311 -280 -393q-61 -37 -127 -37q-156 0 -242 115.5t-86 287.5zM291 457q0 -94 29.5 -190.5t91.5 -96.5q72 0 184 211t178 461 q-106 32 -180 32h-4q-154 0 -230 -67q-69 -170 -69 -345v-5z" />
<glyph unicode="b" horiz-adv-x="1155" d="M106 72q47 408 48 561q0 430 -35 878q61 25 130.5 25t119 -47t49.5 -119q0 -123 -24.5 -392t-31.5 -360q168 315 334 394q74 37 158 37q115 0 177.5 -121t62.5 -295q0 -279 -151.5 -462t-392.5 -183t-444 84zM352 201q82 -31 194.5 -31t194.5 43q100 172 101 375 q0 96 -22.5 187t-71.5 91q-76 0 -199 -208.5t-197 -456.5z" />
<glyph unicode="c" horiz-adv-x="1015" d="M61 428q0 266 149.5 449.5t397.5 183.5q141 0 229.5 -56.5t88.5 -166.5q0 -72 -57.5 -128.5t-129.5 -56.5q-16 0 -41 4q6 27 7 48q0 74 -39 125t-129.5 51t-167.5 -74q-55 -143 -56 -358q0 -293 222 -293q119 0 177 76.5t58 173.5q70 0 121 -35t51 -97q0 -133 -136 -216 t-292 -83q-219 0 -336 117t-117 336z" />
<glyph unicode="d" horiz-adv-x="1142" d="M61 385q0 168 60.5 316.5t182.5 248t259 99.5t238 -37q-4 263 -45 499q66 25 135.5 25t114.5 -46t45 -114.5t-20.5 -323.5t-20.5 -502t49 -525q-74 -25 -154 -25q-135 0 -135 190q0 63 27 228q-86 -182 -152.5 -270.5t-129 -124t-132.5 -35.5q-156 0 -239 114.5 t-83 282.5zM313 436q0 -94 27 -180t88 -86q94 0 214 211t159 457q-99 37 -214 37q-2 -1 -3 -1q-117 0 -201 -67q-70 -166 -70 -371z" />
<glyph unicode="e" horiz-adv-x="995" d="M41 475q0 248 140.5 417t373.5 169q160 0 257 -73t97 -225.5t-138 -229t-337 -76.5q-69 0 -143 8q0 -147 47 -232.5t157.5 -85.5t173 75t62.5 181q70 0 121 -34.5t51 -96.5q0 -127 -135 -212t-285 -85q-233 0 -337.5 126t-104.5 374zM293 627q61 -12 129 -13 q147 0 248 56q12 49 12 78q0 72 -51 108.5t-140.5 36.5t-160.5 -57q-37 -107 -37 -209z" />
<glyph unicode="f" horiz-adv-x="794" d="M10 872.5q0 49.5 35 81t82 31.5t68 -2q10 231 157.5 392t370.5 161q125 0 211 -53t86 -158q0 -74 -55.5 -125t-130.5 -51q-16 0 -41 4q6 27 6 47q0 72 -31 116t-108.5 44t-143.5 -45q-41 -55 -65.5 -153.5t-24.5 -192.5h47q135 0 322 43q25 -40 25 -95q0 -59 -48 -96 q-47 -37 -119 -37q-2 0 -231 29l20 -1065q0 -133 -157 -133q-53 0 -140 25q68 268 68 694q0 37 -18 479q-100 -6 -160 -35q-25 45 -25 94.5z" />
<glyph unicode="g" d="M61 453q0 238 148.5 417t377 179t462.5 -80q-61 -219 -62 -430q0 -100 14.5 -249t14.5 -220q0 -252 -160 -417t-410 -165q-147 0 -252.5 56.5t-105.5 174.5q0 74 55.5 125.5t130.5 51.5q16 0 41 -5q-6 -27 -6 -47q0 -74 55.5 -127t131.5 -53q131 0 204.5 90t73.5 232 q0 70 -9 203t-11 188q-145 -254 -254 -311q-55 -29 -117 -29q-154 0 -238 121t-84 295zM313 498q0 -96 27 -187.5t88 -91.5q70 0 186.5 199t188.5 424q-107 33 -212 33q-2 0 -3 -1q-107 0 -201 -63q-74 -147 -74 -313z" />
<glyph unicode="h" horiz-adv-x="1193" d="M106 1511q66 25 135.5 25t115.5 -46t46 -126t-21.5 -330t-21.5 -389q72 152 210.5 278t275.5 126q207 -1 207 -222l-21 -450q0 -180 60 -365q-61 -24 -124 -24h-5q-178 0 -179 188q0 139 25 327.5t25 231.5q0 106 -97 107q-102 0 -227 -191.5t-143 -320.5q4 -59 41 -305 q-63 -25 -140 -25q-157 0 -157 152q0 76 22.5 291.5t22.5 347.5q0 436 -50 720z" />
<glyph unicode="i" horiz-adv-x="522" d="M102 1354q0 70 39 127q71 33 139 33h2q70 0 104 -36t34 -105.5t-46 -123t-120 -53.5q-152 0 -152 158zM111 132.5q0 64.5 24.5 212t24.5 243.5q0 256 -45 430q66 18 132 18t113.5 -41t47.5 -105.5t-21.5 -223t-21.5 -246.5q0 -229 43 -395q-63 -25 -137 -25t-117 34 t-43 98.5z" />
<glyph unicode="j" horiz-adv-x="528" d="M-344 -330q0 82 56.5 129t129.5 47q16 0 41 -4q-6 -29 -6 -47q0 -131 103 -131q59 0 101 73t60 185q33 201 33 379q0 348 -76 696q63 39 144.5 39t127.5 -43t46 -114q0 -299 -39 -789q-35 -436 -250 -555q-84 -47 -197.5 -47t-193.5 50t-80 132zM90 1354q0 70 39 127 q71 33 139 33h2q70 -1 104 -36.5t34 -105t-46.5 -123t-119.5 -53.5q-152 0 -152 158z" />
<glyph unicode="k" horiz-adv-x="1126" d="M106 1511q66 25 135.5 25t115.5 -46t46 -126t-21.5 -330t-21.5 -389q72 152 214.5 278t287.5 126q205 0 205 -218q0 -111 -101.5 -236.5t-226.5 -199.5q57 -100 142.5 -152.5t224.5 -82.5q0 -80 -38 -126t-107 -46q-139 0 -272.5 134t-201.5 300q131 66 226.5 156 t95.5 180t-55 90q-106 0 -236.5 -194.5t-150.5 -323.5q4 -59 41 -305q-63 -25 -140 -25q-157 0 -157 152q0 76 22.5 291.5t22.5 347.5q0 436 -50 720z" />
<glyph unicode="l" horiz-adv-x="550" d="M129 1511q66 25 135.5 25t115.5 -46t46 -125t-21.5 -315.5t-21.5 -371.5q0 -334 47 -653q-66 -25 -139 -25q-158 0 -158 154q0 74 22.5 289.5t22.5 347.5q0 435 -49 720z" />
<glyph unicode="m" horiz-adv-x="1810" d="M113 1012q65 25 137 25q0 -1 2 -1q74 0 120 -43t46 -114q0 -37 -15 -181q76 135 193 234.5t233 99.5q207 0 207 -221q0 -55 -6 -123q76 143 196 252t238 109q207 -1 207 -222l-20 -438q0 -199 57 -377q-55 -24 -125 -24h-6q-174 0 -174 194q0 88 22.5 296t22.5 261 q0 102 -84 103q-92 0 -220 -188.5t-128 -295.5q10 -162 57 -321q-78 -25 -131 -25q-174 0 -174 195q0 82 22.5 274.5t22.5 241.5q0 102 -92 102q-63 0 -145 -94t-138.5 -207.5t-60.5 -181.5q10 -176 41 -317q-66 -25 -136.5 -25t-114.5 34t-44 94t18.5 217t18.5 311.5 t-47 355.5z" />
<glyph unicode="n" horiz-adv-x="1200" d="M113 1012q65 25 137 25q0 -1 2 -1q74 0 120 -43t46 -106.5t-17 -202.5q78 145 203 255t250 110q207 -1 207 -222l-21 -450q0 -186 58 -365q-55 -24 -125 -24h-6q-174 0 -174 194q0 88 22.5 296t22.5 261q0 102 -93 103q-68 0 -152.5 -97.5t-145 -217t-70.5 -197.5 q8 -160 41 -305q-66 -25 -136.5 -25t-114.5 34t-44 94t18.5 217t18.5 311.5t-47 355.5z" />
<glyph unicode="o" horiz-adv-x="1054" d="M41 476.5q0 236.5 141.5 410.5t362.5 174q454 0 454 -510q0 -242 -147 -409t-372.5 -167t-332 132.5t-106.5 369zM295 598q0 -119 8 -184.5t31 -130.5q47 -133 185 -133t182 73.5t44 227.5q0 436 -206 436q-119 0 -207 -51q-37 -119 -37 -238z" />
<glyph unicode="p" horiz-adv-x="1173" d="M102 -323.5q0 94.5 25 321.5t25 356q0 426 -46 658q65 25 136 25q1 0 2 -1q73 0 113 -42q41 -43 41 -134q0 -88 -27 -239q217 428 481 428q139 0 199.5 -114t60.5 -288q0 -250 -147.5 -454.5t-370.5 -204.5q-127 0 -232 41q4 -281 35 -514q-66 -25 -135 -25t-114.5 46 t-45.5 140.5zM371 201q84 -31 194.5 -31t194.5 43q100 172 100 412.5t-84 240.5q-104 0 -234 -210.5t-171 -454.5z" />
<glyph unicode="q" horiz-adv-x="1134" d="M61 389q0 266 147.5 463t395.5 197t445 -78q-47 -408 -48 -580q0 -432 56 -878q-61 -25 -131 -25t-119 47t-49 119q0 123 15 391t20 361q-137 -303 -279 -383q-61 -35 -131 -35q-156 0 -239 114.5t-83 286.5zM313 434q0 -94 27 -179t88 -85q72 0 188.5 211t186.5 461 q-106 32 -181 32h-4q-154 0 -233 -65q-72 -164 -72 -375z" />
<glyph unicode="r" horiz-adv-x="935" d="M102 1012q65 25 127 25q1 -1 3 -1q64 0 109.5 -43t45.5 -114q0 -37 -12.5 -110t-14.5 -110q80 182 189.5 286t218.5 104q76 0 121 -53.5t45 -134.5t-41 -131t-101.5 -50t-97.5 12q6 25 6 45q0 84 -59 84q-90 0 -169 -181t-105 -339q10 -154 41 -276q-64 -25 -135.5 -25 t-115.5 34t-44 94t18.5 220t18.5 310.5t-48 353.5z" />
<glyph unicode="s" horiz-adv-x="931" d="M61 211q0 74 54.5 120t132.5 46q16 0 41 -4q-6 -29 -6 -47q0 -84 50 -129t135 -45t141.5 31.5t56.5 95t-60.5 101.5t-145.5 60.5t-171 50t-146.5 87t-60.5 149.5q0 141 149.5 237.5t313.5 96.5q180 0 274 -74q55 -43 55 -113.5t-54 -114.5t-132 -44q-16 0 -41 4 q6 27 6 47q0 59 -45 90t-121.5 31t-140.5 -31q-25 -32 -25 -82q0 -53 60 -85q59 -32 144 -55.5t171 -53t145.5 -92t59.5 -156.5q0 -154 -152.5 -255.5t-314.5 -101.5t-267.5 58.5t-105.5 177.5z" />
<glyph unicode="t" horiz-adv-x="808" d="M66 994q34 32 85.5 32t67.5 -2q2 16 2 43q0 153 -35 270q66 33 133.5 33t109.5 -43t42 -127t-10 -190q154 0 293 43q25 -40 25 -93q-1 0 -1 -2q0 -54 -48 -88t-97 -34t-110.5 12t-80.5 14q-2 -18 -11 -73.5t-15 -96.5q-16 -113 -17 -241q0 -281 183 -281q68 0 155 47 q27 -39 27 -100.5t-66.5 -95t-158.5 -33.5q-360 0 -361 409q0 59 17.5 215t17.5 252q-98 -6 -158 -35q-25 36 -25 84q1 49 36 81z" />
<glyph unicode="u" d="M92 1012q55 24 135 24h6q164 0 164 -182q0 -102 -22.5 -287.5t-22.5 -269.5q0 -102 92 -102q55 0 130 93t129.5 208.5t64.5 189.5q-12 225 -35 326q65 25 132 25q1 -1 3 -1q68 0 114 -43t46 -106.5t-18.5 -211t-18.5 -308t37 -342.5q-80 -25 -143 -25q-127 0 -127 168 q0 74 16 205q-82 -174 -199.5 -279.5t-238.5 -105.5q-207 0 -207 221l21 426q0 199 -58 377z" />
<glyph unicode="v" horiz-adv-x="1087" d="M20 920q27 49 80.5 82.5t114.5 33.5q96 0 155.5 -124t77 -273.5t39 -289.5t50.5 -161q70 4 122 89t76 206q45 221 45 346t-12 193q72 14 123 14q176 0 176 -168q0 -106 -44 -254.5t-115.5 -289t-180.5 -238.5t-217.5 -98t-166.5 74.5t-82.5 192.5t-44 243t-67 243.5 t-129.5 178.5z" />
<glyph unicode="w" horiz-adv-x="1581" d="M20 922q62 114 179 114h2q76 0 123 -81t66.5 -198.5t31.5 -238.5q31 -301 76 -330q80 20 141 244.5t61 338.5t-12 181q72 14 123 15q176 0 176 -168q0 -262 27.5 -427t66.5 -196q57 4 98.5 90t59.5 209q35 231 35 355t-12 192q72 14 122 14q176 0 177 -168 q0 -106 -43 -256.5t-113 -293t-169 -243t-198 -100.5q-113 0 -170 168q-45 127 -73 330q-18 -68 -26.5 -98.5t-29 -92t-37 -94t-44 -77.5t-56.5 -66q-72 -57 -159 -57t-143 77.5t-77.5 198.5t-38.5 248q-39 324 -164 410z" />
<glyph unicode="x" horiz-adv-x="1054" d="M20 153.5q0 75.5 50.5 140t162 159t148.5 131.5q-78 119 -154.5 187.5t-195.5 113.5q0 68 44 109.5t103.5 41.5t107.5 -21.5t84 -49t79 -80.5q51 -59 133 -185q49 57 73 93q61 92 62 243q76 0 126 -6t94 -37.5t44 -89t-57.5 -121t-145.5 -130t-112 -93.5 q88 -178 175.5 -281.5t202.5 -138.5q0 -72 -37.5 -111.5t-101 -39.5t-114 25.5t-99.5 85t-78 100.5q-41 63 -149 252q-205 -195 -205 -451q-102 0 -171 39t-69 114.5z" />
<glyph unicode="y" d="M92 1012q55 24 135 24h6q164 0 164 -182q0 -82 -22.5 -231.5t-22.5 -206t2 -82t11 -60.5q12 -70 80 -70h1q68 1 147 110.5t127 242.5t48 211q-10 162 -35 244q65 25 132 25q1 0 3 -1q68 0 114 -43t46 -114q0 -1118 -410 -1342q-92 -49 -208.5 -49t-203.5 61.5t-87 171.5 q0 74 55 124.5t131 50.5q16 0 41 -5q-6 -27 -6 -47q0 -180 125 -180q76 0 137.5 82t97.5 201q72 242 72 438q-61 -166 -166.5 -267.5t-228.5 -101.5q-248 0 -248 324l21 295q0 199 -58 377z" />
<glyph unicode="z" horiz-adv-x="903" d="M31 96q0 92 122.5 242.5t274.5 305.5t186 222q-31 -6 -98 -21.5t-106 -23.5q-100 -23 -185 -23h-3q-86 0 -132.5 38t-46.5 109t27 110q131 -31 350 -31l305 6q72 0 104.5 -28.5t32.5 -89t-68.5 -144.5t-157.5 -163t-184.5 -189.5t-136.5 -202.5q74 -12 179 -12 q233 0 342 63q27 -52 27 -118q0 -69 -48 -114q-47 -44 -115.5 -44t-207 15t-214 15t-223.5 -18q-25 41 -24 96z" />
<glyph unicode="{" horiz-adv-x="784" d="M133 647q0 72 47 111q18 16 39 35.5t34 64.5t13 114.5t-20.5 167t-20.5 163.5q0 182 94.5 282.5t217.5 100.5q80 0 115.5 -40t35.5 -87l-55 6q-72 -4 -128 -55.5t-56 -153.5q0 -51 27.5 -171t27.5 -186q0 -215 -207 -299q98 -27 152.5 -94t58.5 -166q-2 -68 -33 -191.5 t-31 -197.5t47.5 -122t116.5 -48q29 0 76 15q0 -68 -50 -109t-132 -41q-119 0 -197 89t-78 259q0 59 17.5 153.5t17.5 170.5q0 213 -129 229z" />
<glyph unicode="|" horiz-adv-x="516" d="M143 -378q0 71 17.5 481.5t17.5 878.5t-22 896q57 27 109 27t80 -32t28 -81q0 -141 -17.5 -479t-18 -807t22.5 -991q-57 -27 -109 -27t-80 31.5t-28 102.5z" />
<glyph unicode="}" horiz-adv-x="784" d="M96 -125l56 -6q72 4 128 55t56 154q0 51 -27.5 171t-27.5 185q0 215 206 299q-98 27 -152 94.5t-59 165.5q2 68 33 192t31 197.5t-47 121.5t-117 48q-29 0 -76 -14q0 68 50.5 109t132.5 41q119 0 196.5 -89.5t77.5 -259.5q0 -59 -17.5 -153t-17.5 -170q0 -213 129 -230 q0 -72 -45 -110q-20 -16 -40.5 -35.5t-34 -65t-13.5 -115t20.5 -166.5t20.5 -163q0 -182 -94 -282.5t-217 -100.5q-80 0 -116 40t-36 87z" />
<glyph unicode="~" horiz-adv-x="1077" d="M92 532q0 61 65.5 105.5t163 44.5t235.5 -33t220 -33q132 0 189 68q20 -47 20 -86q0 -70 -62.5 -120t-145.5 -50t-237.5 43t-238.5 43q-131 0 -188 -68q-20 47 -21 86z" />
<glyph unicode="&#xa1;" horiz-adv-x="651" d="M154 887q0 68 46 115t110.5 47t98 -38t34 -101.5t-32.5 -118.5q-63 -31 -134 -31q-123 0 -122 127zM162 -356.5q0 67.5 27.5 311.5t27.5 373t-14 217q35 25 84 24.5t78.5 -24t29.5 -66.5q0 -246 3 -378t28 -302t72 -254q-74 -45 -159 -45t-131 38t-46 105.5z" />
<glyph unicode="&#xa2;" horiz-adv-x="1177" d="M92 627q0 211 122 358.5t337 190.5q-12 106 -16 163q37 16 78.5 16.5t69.5 -31.5t28 -74t-2 -58q160 0 260 -56.5t100 -166.5q0 -72 -64.5 -128.5t-146.5 -56.5q-20 0 -45 4q6 27 6 67t-33.5 87t-101.5 64q-29 -188 -29 -362.5t11 -328.5q115 16 171 88t56 158 q78 0 135 -36t57 -95q0 -117 -121.5 -196.5t-281.5 -98.5l16 -168q-49 -16 -84 -16q-92 0 -92 80q0 25 4 102q-209 20 -321.5 151.5t-112.5 342.5zM346 655q0 -301 201 -338q31 289 31 427.5t-11 261.5q-88 -16 -153 -76q-68 -107 -68 -275z" />
<glyph unicode="&#xa3;" horiz-adv-x="1165" d="M61 71.5q0 59.5 47.5 93.5t118.5 34q20 0 31 -2q51 125 61 356q-114 -2 -204 -25q-25 41 -25 86q0 100 115 101q23 0 117 -8v61q0 244 135 417t372 173q117 0 197 -53.5t80 -155.5q0 -74 -55.5 -125t-130.5 -51q-16 0 -41 4q6 27 6 47q0 158 -105 158q-217 0 -217 -414 v-78h12q186 0 259 23q25 -41 24 -84q0 -100 -115 -101q-80 0 -186 15q-14 -219 -106 -357q6 0 122.5 -7t210.5 -7q182 0 336 107q25 -82 25 -147.5t-50.5 -111t-115.5 -45.5q-111 0 -313.5 12.5t-354 12.5t-225.5 -29q-25 41 -25 100.5z" />
<glyph unicode="&#xa4;" horiz-adv-x="1077" d="M88 961q12 33 51 69.5t78 36.5q70 0 178 -133q86 43 184.5 43t174.5 -53q86 92 123 149q35 -14 71.5 -53t36.5 -88t-119 -156q20 -66 21 -125q0 -123 -78 -217q131 -119 178 -149q-57 -109 -135 -109q-59 0 -184 146q-84 -39 -175.5 -39t-160.5 43q-88 -96 -129 -152 q-37 16 -74 52t-37 86t119 157q-23 57 -23 121q0 127 70 225q-115 106 -170 146zM340 664q0 -232 207 -232q72 0 132 47t60 115q0 115 -56 177.5t-152.5 62.5t-161.5 -37q-29 -47 -29 -133z" />
<glyph unicode="&#xa5;" horiz-adv-x="1210" d="M20 1239q49 106 181 107q143 0 264 -181q96 -145 188 -383q145 186 231.5 329.5t86.5 246.5q94 0 156.5 -46t62.5 -132q0 -37 -95.5 -147.5t-206 -246t-138.5 -219.5h63q160 0 248 29q23 -35 22 -76q0 -90 -102 -90q-84 0 -244 10v-98h56q159 0 247 29q23 -35 23 -76 q0 -90 -102.5 -90t-217.5 8q2 -45 23 -188q-66 -25 -139.5 -25t-128 47t-54.5 119v63q-12 2 -43 2q-160 0 -251 -26q-23 33 -23 76q0 90 96 90t230 -13q4 31 8 97q-23 2 -60 2q-160 0 -251 -27q-23 33 -23 76q0 90 102 90q2 0 228 -10q-158 492 -437 653z" />
<glyph unicode="&#xa6;" horiz-adv-x="505" d="M143 -383q0 66 11.5 243t11.5 257t-4 174q49 16 93 16t60.5 -27.5t16.5 -84.5l-2 -310q0 -219 30 -370q-57 -27 -109 -27t-80 31.5t-28 97.5zM145 1878q57 27 109.5 27t80 -32t27.5 -97.5t-11 -242.5t-11 -257t4 -174q-49 -16 -93 -16.5t-60.5 27.5t-16.5 85l2 309 q0 219 -31 371z" />
<glyph unicode="&#xa7;" horiz-adv-x="1050" d="M82 -193q0 82 48 133.5t111.5 51.5t106.5 -17q-16 -57 -16 -100q0 -102 54 -158.5t143 -56.5t145.5 63.5t56.5 170t-64.5 167t-157.5 97.5t-185.5 80t-157 125.5t-64.5 215t101 236.5q-100 94 -100.5 259t155.5 278.5t352 113.5q131 0 220.5 -57t89.5 -156.5t-54.5 -158 t-134.5 -58.5q-31 0 -57 6q10 35 10 76q0 90 -38 128t-119 38t-144 -31q-33 -49 -33 -121.5t34 -119.5t89 -76t120.5 -54.5t131.5 -58t121 -78.5q123 -100 123 -301q0 -129 -76 -243q76 -100 76 -250q0 -205 -141.5 -334t-352.5 -129q-164 0 -278.5 85t-114.5 234zM344 626 q0 -44 20.5 -86t65.5 -73t84 -50.5t109.5 -47t107.5 -45.5q6 33 6 72.5t-10 73.5t-33.5 61.5t-47 48t-64.5 42t-69 34t-79 34t-76 33.5q-14 -53 -14 -97z" />
<glyph unicode="&#xa8;" horiz-adv-x="985" d="M143.5 1383.5q0.5 54.5 16.5 103.5q53 25 121 24q102 0 102 -106q0 -57 -39 -95t-91 -38t-81 28.5t-28.5 83zM602 1383.5q0 54.5 16 103.5q53 25 121 24q102 0 103 -106q0 -57 -39 -95t-91.5 -38t-81 28.5t-28.5 83z" />
<glyph unicode="&#xa9;" horiz-adv-x="1636" d="M92 706.5q0 307.5 224.5 529.5t523.5 222t501.5 -210t202.5 -517t-219 -536.5t-527.5 -229.5t-507 217t-198.5 524.5zM233 711q0 -262 170 -444.5t413 -182.5t415 190.5t172 450.5t-159 437t-423 177q-223 0 -407 -127q-181 -188 -181 -501zM424 681q0 198 118.5 342 t319.5 144q113 0 200 -62.5t87 -162.5q0 -51 -36 -87t-87 -36t-92 12q6 18 5 59.5t-33 78.5t-99.5 37t-130.5 -39q-47 -121 -47 -258q0 -293 194 -293q86 0 118 56t32 159q188 0 188 -96q0 -119 -112.5 -200t-251.5 -81q-184 0 -278.5 114.5t-94.5 312.5z" />
<glyph unicode="&#xaa;" horiz-adv-x="733" d="M72 1038q0 174 80.5 291t222 117t272.5 -49q-25 -147 -24.5 -309t39.5 -271q-31 -14 -78 -14q-109 0 -109 115q0 55 19 135q-33 -78 -57.5 -124t-71 -90t-97.5 -44q-94 0 -145 70.5t-51 172.5zM252 1114q0 -166 55 -166q35 0 89 104.5t85 225.5q-53 14 -105 14t-91 -26 q-33 -74 -33 -152z" />
<glyph unicode="&#xab;" horiz-adv-x="1550" d="M102 608q510 322 672 482q80 -23 80 -92.5t-101.5 -170t-283.5 -239.5q180 -231 377 -350q-18 -82 -115.5 -82t-282 140t-346.5 312zM696 608q510 322 672 482q80 -23 80 -92.5t-101.5 -170t-283.5 -239.5q180 -231 377 -350q-18 -82 -115.5 -82t-282 140t-346.5 312z " />
<glyph unicode="&#xac;" horiz-adv-x="1163" d="M92 621q0 49 41 76.5t105 27.5q439 0 806 43q-18 -162 -18 -264.5t45 -204.5q-74 -25 -137.5 -25t-101 34t-37.5 100q0 29 32 170q-301 14 -360 14q-242 0 -350 -53q-25 33 -25 82z" />
<glyph unicode="&#xad;" horiz-adv-x="1013" d="M112.5 499q0.5 52 45.5 82.5t98 30.5t153.5 -15t232 -15.5t235.5 30.5q25 -41 24.5 -93t-45.5 -82.5t-97 -30.5t-145.5 15t-156.5 15q-207 0 -320 -30q-25 41 -24.5 93z" />
<glyph unicode="&#xae;" horiz-adv-x="1636" d="M92 706.5q0 307.5 224.5 529.5t523.5 222t501.5 -210t202.5 -517t-219 -536.5t-527.5 -229.5t-507 217t-198.5 524.5zM233 711q0 -262 170 -444.5t413 -182.5t415 190.5t172 450.5t-159 437t-423 177q-223 0 -407 -127q-181 -188 -181 -501zM449 1112q211 57 370 57 q301 0 301 -198q0 -88 -57 -162.5t-145 -103.5q55 -113 133.5 -196t156.5 -108q0 -59 -32.5 -94t-92.5 -35q-106 0 -229 170t-143 353q82 0 134 42t52 109q0 74 -102 74q-51 0 -123 -14q-10 -137 -10 -344t28 -367q-35 -14 -89 -14t-100 39.5t-46 92t12 159t12 244.5 t-30 296z" />
<glyph unicode="&#xaf;" horiz-adv-x="935" d="M102 1337q1 90 103 90l354 -20q162 0 252 20q23 -25 23 -75q0 -90 -103 -90l-354 20q-162 0 -252 -20q-23 25 -23 75z" />
<glyph unicode="&#xb0;" horiz-adv-x="804" d="M82 969q0 172 91 279.5t240.5 107.5t229.5 -92.5t80 -241t-96.5 -254.5t-236.5 -106t-224 88t-84 219zM266 1018q0 -187 135 -187q63 0 102.5 53.5t39.5 134.5t-33 127t-106.5 46t-112.5 -33q-25 -63 -25 -141z" />
<glyph unicode="&#xb1;" horiz-adv-x="1075" d="M112.5 108.5q0.5 57.5 45.5 93.5t101 36t177 -15.5t259.5 -15.5t242.5 31q25 -41 25 -98.5t-45.5 -93.5t-101.5 -36t-170 15.5t-255 15.5t-254 -31q-25 41 -24.5 98.5zM112.5 610.5q0.5 57.5 45.5 93t121 35.5q23 0 174 -18q0 162 -31 244q41 25 98.5 24.5t93 -34 t35.5 -91.5q0 -8 -20 -155h10q195 -1 299 30q25 -41 25 -98t-45.5 -93t-120.5 -36q-27 0 -179 18q0 -160 31 -243q-41 -25 -98 -25t-93 34t-36 81t16 166q-195 -2 -301 -31q-25 41 -24.5 98.5z" />
<glyph unicode="&#xb2;" horiz-adv-x="669" d="M71.5 723q0.5 51 54.5 112.5t117.5 106.5t118 99.5t54.5 95.5q0 63 -76 63q-37 0 -70 -20q-16 -37 -16 -71t6 -56q-23 -8 -62.5 -8.5t-76.5 30.5t-37 80q0 84 89 136t190.5 52t168 -45t66.5 -120.5t-47 -139t-105 -108.5q-150 -117 -149 -172q193 8 287 65q14 -43 14 -90 t-23.5 -79.5t-66.5 -32.5l-414 12q-23 39 -22.5 90z" />
<glyph unicode="&#xb3;" horiz-adv-x="704" d="M72 764q0 47 39 81t85.5 33.5t69.5 -6.5q-8 -16 -8 -43.5t22.5 -50t57.5 -22.5q90 0 90 86q0 33 -19.5 54.5t-52.5 21.5q-70 0 -69 69q0 23 10 45q14 -4 45 -4q76 0 76 98q0 31 -18.5 52.5t-56.5 21.5t-67 -16q-16 -37 -16 -68t6 -59q-25 -4 -35 -4q-57 0 -94 28.5 t-37 79.5q0 90 78 136t181.5 46t172 -44t68.5 -133t-96 -150q129 -37 129 -152.5t-96.5 -182.5t-208 -67t-184 38t-72.5 112z" />
<glyph unicode="&#xb4;" horiz-adv-x="684" d="M102 1249q184 102 285 287q82 0 138.5 -29.5t56.5 -87.5q0 -82 -153 -165t-243 -83q-68 0 -84 78z" />
<glyph unicode="&#xb5;" horiz-adv-x="1171" d="M78 -336q0 86 36 395.5t36 542t-58 410.5q57 25 141 24q164 0 164 -182q0 -102 -22.5 -293.5t-22.5 -275.5q0 -102 92 -103q100 0 232.5 213t132.5 332q-10 170 -35 285q66 25 134.5 24.5t114.5 -43.5t46 -106.5t-18.5 -217t-18.5 -315.5t37 -344q-59 -23 -130 -22.5 t-118 46.5t-47 118.5t14 187.5q-80 -143 -203.5 -254t-248.5 -111q-76 0 -123 33q6 -276 199 -448q-78 -74 -161 -74t-128 46t-45 132z" />
<glyph unicode="&#xb6;" horiz-adv-x="1533" d="M20 967q0 219 162 355t396 136q121 0 277.5 -9t229.5 -9q205 0 404 84q25 -57 24.5 -131t-45.5 -121t-114.5 -47t-122.5 7t-123 21.5t-102 20.5q-45 -154 -45 -333t18 -440t18 -370q0 -193 -76.5 -307.5t-242.5 -114.5q-74 0 -128 40t-54 106q0 31 24 108q63 -45 129 -45 q147 0 148 252q0 207 -36 470t-36 417.5t78 232.5h-15q-158 0 -157 -346q0 -211 61 -430q-74 -20 -149 -20q-229 0 -376 127t-147 346z" />
<glyph unicode="&#xb7;" horiz-adv-x="526" d="M102 724q0 71 37 134q66 35 133 35q152 0 152 -141q0 -76 -51 -128.5t-123 -52.5t-110 41t-38 112z" />
<glyph unicode="&#xb8;" horiz-adv-x="647" d="M182 -377q0 25 15 53q53 -33 113.5 -32.5t96 20t35.5 53.5q0 57 -80 58q-40 -1 -77 -21q-35 55 -35 113q0 92 67 151h158q-111 -35 -110 -139q45 20 106 20.5t98 -42.5t37 -115q0 -111 -75.5 -182.5t-188.5 -71.5q-72 0 -116 34t-44 101z" />
<glyph unicode="&#xb9;" horiz-adv-x="591" d="M72 1184q70 20 134 65t105 66.5t100.5 21.5t108.5 -16q-27 -180 -26.5 -383t22.5 -289q-53 -35 -117 -35q-115 0 -114 97q0 39 18.5 170t18.5 282q-10 -8 -46 -43q-74 -74 -114 -73q-90 0 -90 137z" />
<glyph unicode="&#xba;" horiz-adv-x="716" d="M72 1093.5q0 143.5 84 248t217 104.5q272 0 272 -307q0 -145 -88 -249t-223 -104t-198.5 82t-63.5 225.5zM250 1141q0 -207 112 -207q63 0 84 38t21 115q0 209 -100 209q-56 1 -99 -24q-18 -68 -18 -131z" />
<glyph unicode="&#xbb;" horiz-adv-x="1550" d="M102 248q0 69 101.5 169.5t283.5 239.5q-179 232 -376 351q18 82 115.5 82t281.5 -140.5t346 -312.5q-510 -322 -672 -481q-80 23 -80 92zM696 248q0 69 101.5 169.5t283.5 239.5q-179 232 -376 351q18 82 115.5 82t281.5 -140.5t346 -312.5q-510 -322 -672 -481 q-80 23 -80 92z" />
<glyph unicode="&#xbc;" horiz-adv-x="1472" d="M72 1184q0 -137 90 -137q41 0 114 73q35 35 46 43q0 -152 -18.5 -282.5t-18.5 -172.5t25.5 -68t89 -26t116.5 35q-23 86 -22.5 289t26.5 383q-49 16 -108.5 16t-93 -18.5t-108.5 -67.5t-138 -67zM215 12q156 137 393 580q289 528 373 646t167 118t126 -47 q-150 -135 -373 -549q-299 -557 -385 -676t-170 -119t-131 47zM805 287q141 236 260 364q55 59 147 60q55 0 115 -17q-27 -125 -27 -362q35 6 89 26q12 -37 12 -79q0 -102 -84 -103h-14q4 -100 20 -176q-45 -12 -106 -12q-107 0 -107 84q0 2 6 106q-211 6 -229 8 q-82 10 -82 101zM967 324q47 -8 94 -8.5t63 1.5q8 61 8.5 137t-4.5 93q-61 -71 -161 -223z" />
<glyph unicode="&#xbd;" horiz-adv-x="1527" d="M72 1184q0 -137 90 -137q41 0 114 73q35 35 46 43q0 -152 -18.5 -282.5t-18.5 -172.5t25.5 -68t89 -26t116.5 35q-23 86 -22.5 289t26.5 383q-49 16 -108.5 16t-93 -18.5t-108.5 -67.5t-138 -67zM215 12q156 137 393 580q289 528 373 646t167 118t126 -47 q-150 -135 -373 -549q-299 -557 -385 -676t-170 -119t-131 47zM929.5 96q0.5 51 53.5 112.5t118.5 106.5t119 99.5t53.5 95.5q0 63 -76 63q-37 0 -70 -20q-16 -37 -16 -70.5t6 -56.5q-23 -8 -62.5 -8t-76.5 30.5t-37 79.5q0 84 89 136.5t190.5 52.5t168 -45t66.5 -121 t-47 -139.5t-102 -108.5q-152 -117 -152 -172q193 8 287 66q14 -43 14 -90.5t-23.5 -80t-66.5 -32.5l-414 12q-23 39 -22.5 90z" />
<glyph unicode="&#xbe;" horiz-adv-x="1482" d="M72 764q0 47 39 81t85.5 33.5t69.5 -6.5q-8 -16 -8 -43.5t22.5 -50t57.5 -22.5q90 0 90 86q0 33 -19.5 54.5t-52.5 21.5q-70 0 -69 69q0 23 10 45q14 -4 45 -4q76 0 76 98q0 31 -18.5 52.5t-56.5 21.5t-67 -16q-16 -37 -16 -68t6 -59q-25 -4 -35 -4q-57 0 -94 28.5 t-37 79.5q0 90 78 136t181.5 46t172 -44t68.5 -133t-96 -150q129 -37 129 -152.5t-96.5 -182.5t-208 -67t-184 38t-72.5 112zM229 12q156 137 394 580q289 528 372.5 646t166.5 118t126 -47q-150 -135 -373 -549q-299 -557 -385 -676t-170 -119t-131 47zM815 287 q141 236 260 364q55 59 148 60q55 0 114 -17q-27 -125 -26 -362q35 6 88 26q12 -37 12 -79q0 -102 -84 -103h-14q4 -100 20 -176q-45 -12 -106 -12q-107 0 -107 84q0 2 6 106q-211 6 -229 8q-82 10 -82 101zM977 324q47 -8 94 -8.5t64 1.5q8 61 8 137t-4 93 q-62 -71 -162 -223z" />
<glyph unicode="&#xbf;" horiz-adv-x="1054" d="M113 -197q0 88 56 178.5t122.5 153t123 147.5t56.5 164q0 37 -12 80q51 39 117.5 39t114.5 -40t48 -102.5t-36.5 -121.5t-89 -109.5t-103.5 -101.5t-88 -114.5t-37 -133t37 -110.5t109.5 -41t116.5 65.5t44 144.5t-12 138q37 10 68 10q82 0 138 -54t56 -136 q0 -160 -143.5 -259.5t-313.5 -99.5t-271 79t-101 224zM451 887q0 68 46 115t110.5 47t98 -36t34 -100.5t-32.5 -119.5q-61 -33 -119 -33q-137 0 -137 127z" />
<glyph unicode="&#xc0;" horiz-adv-x="1259" d="M20 154q0 102 197 600t242 684q86 29 155 28q106 0 166 -74.5t92 -211.5q10 -41 42 -180.5t53 -225.5q63 -268 115.5 -415.5t166.5 -235.5q-25 -61 -81 -98t-121 -37q-150 0 -220 225q-33 104 -59 205q-72 -25 -177.5 -25t-258.5 23q-63 -248 -64 -373q0 -27 2 -39 q-27 -4 -90 -4t-111.5 40t-48.5 114zM344 1829q0 57 56.5 87t138.5 30q100 -185 284 -287q-16 -78 -84 -78q-90 0 -242.5 83t-152.5 165zM379 588q82 -10 167 -10t181 18q-18 84 -125 643q-127 -329 -223 -651z" />
<glyph unicode="&#xc1;" horiz-adv-x="1259" d="M20 154q0 102 197 600t242 684q86 29 155 28q106 0 166 -74.5t92 -211.5q10 -41 42 -180.5t53 -225.5q63 -268 115.5 -415.5t166.5 -235.5q-25 -61 -81 -98t-121 -37q-150 0 -220 225q-33 104 -59 205q-72 -25 -177.5 -25t-258.5 23q-63 -248 -64 -373q0 -27 2 -39 q-27 -4 -90 -4t-111.5 40t-48.5 114zM379 588q82 -10 167 -10t181 18q-18 84 -125 643q-127 -329 -223 -651zM508 1659q184 102 285 287q82 0 138.5 -29.5t56.5 -87.5q0 -82 -153 -165t-243 -83q-68 0 -84 78z" />
<glyph unicode="&#xc2;" horiz-adv-x="1259" d="M20 154q0 102 197 600t242 684q86 29 155 28q106 0 166 -74.5t92 -211.5q10 -41 42 -180.5t53 -225.5q63 -268 115.5 -415.5t166.5 -235.5q-25 -61 -81 -98t-121 -37q-150 0 -220 225q-33 104 -59 205q-72 -25 -177.5 -25t-258.5 23q-63 -248 -64 -373q0 -27 2 -39 q-27 -4 -90 -4t-111.5 40t-48.5 114zM282 1639q88 68 127 114t80 100t43 56q61 78 146 78q59 -104 155 -207.5t172 -140.5q-27 -57 -75 -57.5t-142 51t-172 112.5q-186 -164 -246.5 -164t-87.5 58zM379 588q82 -10 167 -10t181 18q-18 84 -125 643q-127 -329 -223 -651z" />
<glyph unicode="&#xc3;" horiz-adv-x="1259" d="M20 154q0 102 197 600t242 684q86 29 155 28q106 0 166 -74.5t92 -211.5q10 -41 42 -180.5t53 -225.5q63 -268 115.5 -415.5t166.5 -235.5q-25 -61 -81 -98t-121 -37q-150 0 -220 225q-33 104 -59 205q-72 -25 -177.5 -25t-258.5 23q-63 -248 -64 -373q0 -27 2 -39 q-27 -4 -90 -4t-111.5 40t-48.5 114zM266.5 1709q-0.5 50 55 92t135.5 42t199.5 -29.5t197.5 -29.5t137 61q20 -39 20.5 -93t-51 -102t-118 -48t-202.5 39.5t-215 39.5t-138 -61q-20 39 -20.5 89zM379 588q82 -10 167 -10t181 18q-18 84 -125 643q-127 -329 -223 -651z" />
<glyph unicode="&#xc4;" horiz-adv-x="1259" d="M20 154q0 102 197 600t242 684q86 29 155 28q106 0 166 -74.5t92 -211.5q10 -41 42 -180.5t53 -225.5q63 -268 115.5 -415.5t166.5 -235.5q-25 -61 -81 -98t-121 -37q-150 0 -220 225q-33 104 -59 205q-72 -25 -177.5 -25t-258.5 23q-63 -248 -64 -373q0 -27 2 -39 q-27 -4 -90 -4t-111.5 40t-48.5 114zM274.5 1793.5q0.5 54.5 16.5 103.5q53 25 121 24q102 0 102 -106q0 -57 -39 -95t-91 -38t-81 28.5t-28.5 83zM379 588q82 -10 167 -10t181 18q-18 84 -125 643q-127 -329 -223 -651zM733 1793.5q0 54.5 16 103.5q53 25 121 24 q102 0 103 -106q0 -57 -39 -95t-91.5 -38t-81 28.5t-28.5 83z" />
<glyph unicode="&#xc5;" horiz-adv-x="1259" d="M20 154q0 102 197 600t242 684q86 29 155 28q106 0 166 -74.5t92 -211.5q10 -41 42 -180.5t53 -225.5q63 -268 115.5 -415.5t166.5 -235.5q-25 -61 -81 -98t-121 -37q-150 0 -220 225q-33 104 -59 205q-72 -25 -177.5 -25t-258.5 23q-63 -248 -64 -373q0 -27 2 -39 q-27 -4 -90 -4t-111.5 40t-48.5 114zM379 588q82 -10 167 -10t181 18q-18 84 -125 643q-127 -329 -223 -651zM444 1754q0 77 57.5 134.5t135.5 57.5t122 -47.5t44 -123t-59.5 -131t-134 -55.5t-120 44t-45.5 121zM555 1777q0 -32 22.5 -55.5t52 -23.5t47 16.5t17.5 46 t-23.5 54t-54 24.5t-51.5 -12q-10 -18 -10 -50z" />
<glyph unicode="&#xc6;" horiz-adv-x="1691" d="M20 139.5q0 71.5 98.5 287.5t240 516t208.5 495q96 29 183.5 28.5t261.5 -12.5t311 -12t256 37q25 -45 25 -105.5t-48.5 -111t-116 -50.5t-223 17.5t-260.5 17.5q31 -250 50 -385q96 -10 242.5 -10t248.5 31q25 -41 25 -100.5t-46 -100.5t-115 -41t-176.5 15.5 t-156.5 17.5q43 -319 76 -481q303 0 508 90q18 -57 18 -131t-50 -119t-118.5 -45t-243 12t-276.5 12q-80 0 -96 88q-10 59 -43 318q-72 -25 -181.5 -25t-263.5 23q-84 -244 -96 -402q-47 -14 -100 -14t-97.5 34t-44.5 105.5zM416 588q82 -10 178 -10t192 18q-8 63 -22 195 q-31 291 -64 460q-72 -133 -165.5 -369.5t-118.5 -293.5z" />
<glyph unicode="&#xc7;" horiz-adv-x="1253" d="M51 672q0 342 187.5 574.5t506.5 232.5q178 0 311.5 -104.5t133.5 -270.5q0 -88 -49 -145.5t-121 -57.5t-115 19q6 33 6 69q-2 129 -63.5 210t-179 81t-217.5 -76q-59 -86 -92 -225t-33 -274q0 -225 87 -378t271 -153q170 0 229 129q55 113 56 299q104 0 173.5 -38 t69.5 -124q0 -188 -157.5 -317t-366.5 -146q-39 -39 -39 -98q45 20 106.5 20.5t98.5 -42.5t37 -115q0 -111 -76 -182.5t-188 -71.5q-72 0 -116 34t-44 101q0 25 14 53q53 -33 113.5 -32.5t96.5 20t36 53.5q0 57 -80 58q-41 -1 -78 -21q-35 55 -34.5 117.5t30.5 108.5 q-252 25 -383 212t-131 480z" />
<glyph unicode="&#xc8;" horiz-adv-x="1173" d="M123 1454q152 -12 407.5 -12t489.5 37q25 -45 24.5 -107.5t-48.5 -111t-118.5 -48.5t-225 20.5t-228.5 20.5q-16 -207 -18 -389q129 -12 277 -12t255 43q25 -45 25 -107.5t-48.5 -112.5t-115 -50t-197.5 25.5t-199 25.5q0 -324 15 -475q98 -8 153 -8q271 0 476 90 q25 -55 24.5 -125t-48.5 -120t-118 -50q-217 0 -680 24q-37 2 -65.5 23.5t-28.5 54.5q0 109 17.5 367t17.5 482t-43 515zM338 1829q0 57 56.5 87t137.5 30q101 -185 285 -287q-16 -78 -84 -78q-90 0 -242.5 83t-152.5 165z" />
<glyph unicode="&#xc9;" horiz-adv-x="1173" d="M123 1454q152 -12 407.5 -12t489.5 37q25 -45 24.5 -107.5t-48.5 -111t-118.5 -48.5t-225 20.5t-228.5 20.5q-16 -207 -18 -389q129 -12 277 -12t255 43q25 -45 25 -107.5t-48.5 -112.5t-115 -50t-197.5 25.5t-199 25.5q0 -324 15 -475q98 -8 153 -8q271 0 476 90 q25 -55 24.5 -125t-48.5 -120t-118 -50q-217 0 -680 24q-37 2 -65.5 23.5t-28.5 54.5q0 109 17.5 367t17.5 482t-43 515zM481 1659q184 102 285 287q82 0 138.5 -30t56.5 -87q0 -82 -153 -165t-243 -83q-68 0 -84 78z" />
<glyph unicode="&#xca;" horiz-adv-x="1173" d="M123 1454q152 -12 407.5 -12t489.5 37q25 -45 24.5 -107.5t-48.5 -111t-118.5 -48.5t-225 20.5t-228.5 20.5q-16 -207 -18 -389q129 -12 277 -12t255 43q25 -45 25 -107.5t-48.5 -112.5t-115 -50t-197.5 25.5t-199 25.5q0 -324 15 -475q98 -8 153 -8q271 0 476 90 q25 -55 24.5 -125t-48.5 -120t-118 -50q-217 0 -680 24q-37 2 -65.5 23.5t-28.5 54.5q0 109 17.5 367t17.5 482t-43 515zM258 1638q88 68 127 114t80 100.5t43 56.5q61 78 145 78q59 -104 155.5 -208t172.5 -141q-27 -57 -75 -57t-142 51t-172 113q-186 -164 -246.5 -164 t-87.5 57z" />
<glyph unicode="&#xcb;" horiz-adv-x="1173" d="M123 1454q152 -12 407.5 -12t489.5 37q25 -45 24.5 -107.5t-48.5 -111t-118.5 -48.5t-225 20.5t-228.5 20.5q-16 -207 -18 -389q129 -12 277 -12t255 43q25 -45 25 -107.5t-48.5 -112.5t-115 -50t-197.5 25.5t-199 25.5q0 -324 15 -475q98 -8 153 -8q271 0 476 90 q25 -55 24.5 -125t-48.5 -120t-118 -50q-217 0 -680 24q-37 2 -65.5 23.5t-28.5 54.5q0 109 17.5 367t17.5 482t-43 515zM272.5 1793q0.5 54 16.5 103q53 25 121 25q102 0 102 -106q0 -57 -39 -95.5t-91 -38.5t-81 29t-28.5 83zM731.5 1793q0.5 54 16.5 103q51 25 120 25 q102 0 103 -106q0 -57 -39 -95.5t-91.5 -38.5t-81 29t-28 83z" />
<glyph unicode="&#xcc;" horiz-adv-x="569" d="M2 1829q0 57 56.5 87t138.5 30q100 -185 284 -287q-16 -78 -84 -78q-90 0 -242.5 83t-152.5 165zM123 1430q66 25 139.5 24.5t127.5 -47.5t54 -129t-20.5 -314.5t-20.5 -371.5q0 -358 43 -567q-66 -25 -139.5 -25t-127.5 47t-54 129t20.5 314.5t20.5 371.5q0 358 -43 568 z" />
<glyph unicode="&#xcd;" horiz-adv-x="569" d="M106 1659q184 102 285 287q82 0 138.5 -29.5t56.5 -87.5q0 -82 -153 -165t-243 -83q-68 0 -84 78zM123 1430q66 25 139.5 24.5t127.5 -47.5t54 -129t-20.5 -314.5t-20.5 -371.5q0 -358 43 -567q-66 -25 -139.5 -25t-127.5 47t-54 129t20.5 314.5t20.5 371.5 q0 358 -43 568z" />
<glyph unicode="&#xce;" horiz-adv-x="569" d="M-72 1639q88 68 127 114t80 100t43 56q61 78 146 78q59 -104 155 -207.5t172 -140.5q-27 -57 -75 -57.5t-142 51t-172 112.5q-186 -164 -246.5 -164t-87.5 58zM123 1430q66 25 139.5 24.5t127.5 -47.5t54 -129t-20.5 -314.5t-20.5 -371.5q0 -358 43 -567 q-66 -25 -139.5 -25t-127.5 47t-54 129t20.5 314.5t20.5 371.5q0 358 -43 568z" />
<glyph unicode="&#xcf;" horiz-adv-x="569" d="M-63.5 1793.5q0.5 54.5 16.5 103.5q53 25 121 24q102 0 102 -106q0 -57 -39 -95t-91 -38t-81 28.5t-28.5 83zM123 1430q66 25 139.5 24.5t127.5 -47.5t54 -129t-20.5 -314.5t-20.5 -371.5q0 -358 43 -567q-66 -25 -139.5 -25t-127.5 47t-54 129t20.5 314.5t20.5 371.5 q0 358 -43 568zM395 1793.5q0 54.5 16 103.5q53 25 121 24q102 0 103 -106q0 -57 -39 -95t-91.5 -38t-81 28.5t-28.5 83z" />
<glyph unicode="&#xd0;" horiz-adv-x="1486" d="M81.5 698.5q0.5 57.5 45.5 93t101.5 35.5t99.5 -6q-4 358 -49 551q295 98 560 98t425.5 -192.5t160.5 -464.5q0 -350 -159 -588q-80 -117 -209 -183.5t-293 -66.5q-252 0 -498 105q59 256 64 551q-135 -2 -224 -31q-25 41 -24.5 98.5zM565 797q170 0 260 30 q25 -41 25 -98t-45 -93t-121 -36q-27 0 -117 12q4 -229 17 -407q88 -35 199.5 -35t185 49t112.5 135q74 164 74 398q0 211 -74 366q-39 78 -109.5 123t-171 45t-216.5 -31q-18 -250 -19 -458z" />
<glyph unicode="&#xd1;" horiz-adv-x="1363" d="M123 159.5q0 65.5 19.5 274.5t19.5 316q0 408 -39 675q57 29 167.5 29t155.5 -88q303 -616 580 -1044q-6 393 -6 415q0 384 -49 697q66 33 138.5 32.5t118.5 -45.5t46 -108.5t-18.5 -279.5t-18.5 -343q0 -408 37 -678q-66 -25 -146.5 -24.5t-126.5 26.5q-131 76 -612 959 q-8 -80 -8 -374t45 -574q-63 -25 -137 -25t-120 47t-46 112.5zM323.5 1709.5q-0.5 50.5 55 92.5t135.5 42t199.5 -30t197.5 -29.5t137 61.5q20 -39 20.5 -93.5t-51 -102.5t-118 -48t-202.5 40t-215 40t-138 -62q-20 39 -20.5 89.5z" />
<glyph unicode="&#xd2;" horiz-adv-x="1417" d="M61 691.5q0 320.5 192.5 554t490.5 233.5t455 -201t157 -522.5t-192.5 -551t-491.5 -229.5t-455 198t-156 518.5zM332 700q0 -242 98 -387t311 -145q117 0 199 94q145 170 145 483q0 244 -99 394.5t-310 150.5q-127 0 -225 -82q-55 -86 -87 -231.5t-32 -276.5zM408 1829 q0 57 56 87t138 30q101 -185 285 -287q-16 -78 -84 -78q-90 0 -242.5 83t-152.5 165z" />
<glyph unicode="&#xd3;" horiz-adv-x="1417" d="M61 691.5q0 320.5 192.5 554t490.5 233.5t455 -201t157 -522.5t-192.5 -551t-491.5 -229.5t-455 198t-156 518.5zM332 700q0 -242 98 -387t311 -145q117 0 199 94q145 170 145 483q0 244 -99 394.5t-310 150.5q-127 0 -225 -82q-55 -86 -87 -231.5t-32 -276.5zM571 1659 q184 102 285 287q82 0 138.5 -30t56.5 -87q0 -82 -153 -165t-243 -83q-68 0 -84 78z" />
<glyph unicode="&#xd4;" horiz-adv-x="1417" d="M61 691.5q0 320.5 192.5 554t490.5 233.5t455 -201t157 -522.5t-192.5 -551t-491.5 -229.5t-455 198t-156 518.5zM332 700q0 -242 98 -387t311 -145q117 0 199 94q145 170 145 483q0 244 -99 394.5t-310 150.5q-127 0 -225 -82q-55 -86 -87 -231.5t-32 -276.5zM373 1638 q88 68 127 114t80 100.5t43 56.5q61 78 145 78q59 -104 155.5 -208t172.5 -141q-27 -57 -75 -57t-142.5 51t-171.5 113q-186 -164 -247 -164t-87 57z" />
<glyph unicode="&#xd5;" horiz-adv-x="1417" d="M61 691.5q0 320.5 192.5 554t490.5 233.5t455 -201t157 -522.5t-192.5 -551t-491.5 -229.5t-455 198t-156 518.5zM332 700q0 -242 98 -387t311 -145q117 0 199 94q145 170 145 483q0 244 -99 394.5t-310 150.5q-127 0 -225 -82q-55 -86 -87 -231.5t-32 -276.5z M350.5 1709.5q-0.5 50.5 55 92.5t135.5 42t199.5 -30t197.5 -29.5t137 61.5q20 -39 20.5 -93.5t-51 -102.5t-118 -48t-202.5 40t-215 40t-138 -62q-20 39 -20.5 89.5z" />
<glyph unicode="&#xd6;" horiz-adv-x="1417" d="M61 691.5q0 320.5 192.5 554t490.5 233.5t455 -201t157 -522.5t-192.5 -551t-491.5 -229.5t-455 198t-156 518.5zM332 700q0 -242 98 -387t311 -145q117 0 199 94q145 170 145 483q0 244 -99 394.5t-310 150.5q-127 0 -225 -82q-55 -86 -87 -231.5t-32 -276.5zM373 1793 q0 54 16 103q51 25 121 25q102 0 102 -106q0 -57 -38.5 -95.5t-91 -38.5t-81 29t-28.5 83zM831.5 1793q0.5 54 16.5 103q51 25 121 25q102 0 102 -106q0 -57 -39 -95.5t-91 -38.5t-81 29t-28.5 83z" />
<glyph unicode="&#xd7;" horiz-adv-x="919" d="M113 743q12 33 51 70t73.5 37t55 -8t35 -17.5t35 -34t33 -41t39 -56.5t42.5 -62l8 6q156 131 211 219q35 -14 72 -53t37 -78t-13.5 -65.5t-50.5 -57.5q-47 -41 -157 -113q127 -154 223 -217q-57 -109 -135 -108q-74 0 -148 94q-27 35 -86 123q-139 -117 -211 -219 q-37 16 -73.5 52t-36.5 89t45 97t172 128q-139 162 -221 215z" />
<glyph unicode="&#xd8;" horiz-adv-x="1417" d="M61.5 677q-0.5 335 192 568.5t504.5 233.5q182 0 323 -93q0 2 4 7q49 74 122 73.5t112 -45.5q-70 -74 -123 -141q160 -193 160 -519.5t-192.5 -556t-504.5 -229.5q-178 0 -305 78q-55 -78 -126.5 -78t-108.5 45q47 37 119 127q-176 195 -176.5 530zM328 700 q-1 -213 69 -344q152 207 257.5 367t299.5 463q-104 111 -278 110q-131 0 -227 -84q-57 -86 -89 -232t-32 -280zM481 248q98 -86 260 -86q119 0 201 96q147 174 148 487q-1 185 -58 318q-172 -238 -551 -815z" />
<glyph unicode="&#xd9;" horiz-adv-x="1374" d="M119 1430q66 25 139.5 24.5t127.5 -47.5t54 -119q0 -154 -29.5 -405.5t-29.5 -389t73.5 -228.5t219.5 -91q59 0 143 28.5t133 73.5q27 227 27 585t-51 581q66 25 139.5 24.5t127.5 -47.5t54 -122.5t-17.5 -260t-17.5 -413t21 -402.5q-299 -246 -606 -246 q-233 0 -363.5 120t-130.5 347q0 72 13.5 259.5t13.5 273.5q0 309 -41 455zM332 1829q0 57 56 87t138 30q101 -185 285 -287q-16 -78 -84 -78q-90 0 -242.5 83t-152.5 165z" />
<glyph unicode="&#xda;" horiz-adv-x="1374" d="M119 1430q66 25 139.5 24.5t127.5 -47.5t54 -119q0 -154 -29.5 -405.5t-29.5 -389t73.5 -228.5t219.5 -91q59 0 143 28.5t133 73.5q27 227 27 585t-51 581q66 25 139.5 24.5t127.5 -47.5t54 -122.5t-17.5 -260t-17.5 -413t21 -402.5q-299 -246 -606 -246 q-233 0 -363.5 120t-130.5 347q0 72 13.5 259.5t13.5 273.5q0 309 -41 455zM508 1659q184 102 285 287q82 0 138 -30t56 -87q0 -82 -152.5 -165t-242.5 -83q-68 0 -84 78z" />
<glyph unicode="&#xdb;" horiz-adv-x="1374" d="M119 1430q66 25 139.5 24.5t127.5 -47.5t54 -119q0 -154 -29.5 -405.5t-29.5 -389t73.5 -228.5t219.5 -91q59 0 143 28.5t133 73.5q27 227 27 585t-51 581q66 25 139.5 24.5t127.5 -47.5t54 -122.5t-17.5 -260t-17.5 -413t21 -402.5q-299 -246 -606 -246 q-233 0 -363.5 120t-130.5 347q0 72 13.5 259.5t13.5 273.5q0 309 -41 455zM332 1638q88 68 127 114t80 100.5t43 56.5q61 78 145 78q59 -104 155.5 -208t172.5 -141q-27 -57 -75 -57t-142.5 51t-171.5 113q-186 -164 -247 -164t-87 57z" />
<glyph unicode="&#xdc;" horiz-adv-x="1374" d="M119 1430q66 25 139.5 24.5t127.5 -47.5t54 -119q0 -154 -29.5 -405.5t-29.5 -389t73.5 -228.5t219.5 -91q59 0 143 28.5t133 73.5q27 227 27 585t-51 581q66 25 139.5 24.5t127.5 -47.5t54 -122.5t-17.5 -260t-17.5 -413t21 -402.5q-299 -246 -606 -246 q-233 0 -363.5 120t-130.5 347q0 72 13.5 259.5t13.5 273.5q0 309 -41 455zM344 1793q0 54 16 103q53 25 121 25q102 0 103 -106q0 -57 -39 -95.5t-91.5 -38.5t-81 29t-28.5 83zM803 1793q0 54 16 103q53 25 121 25q102 0 102 -106q0 -57 -38.5 -95.5t-91 -38.5t-81 29 t-28.5 83z" />
<glyph unicode="&#xdd;" horiz-adv-x="1189" d="M10 1348q49 106 180 106q244 0 461 -700q127 190 218.5 387.5t91.5 324.5q217 0 217 -114q0 -80 -98.5 -238t-212 -324.5t-134.5 -244.5q-6 -80 -6 -197t29 -323q-66 -25 -139.5 -25t-128 47t-54.5 120t25 372q-158 614 -449 809zM479 1659q184 102 285 287q82 0 138 -30 t56 -87q0 -82 -152.5 -165t-242.5 -83q-68 0 -84 78z" />
<glyph unicode="&#xde;" horiz-adv-x="1202" d="M125 1430q68 25 141.5 24.5t126.5 -42.5t53 -124q0 -37 -4 -106q88 10 162 10q250 0 403.5 -106.5t153.5 -321.5t-151.5 -361.5t-364.5 -146.5q-156 0 -156 119q0 37 15 78q55 -14 100 -15q141 0 214 78t73 217t-79 213t-216 74q-68 0 -172 -23q-18 -174 -18 -433.5 t43 -538.5q-68 -25 -142 -25t-127 42t-53 127t20.5 300t20.5 446.5t-43 514.5z" />
<glyph unicode="&#xdf;" horiz-adv-x="1333" d="M10 872.5q0 49.5 35 81t82 31.5t68 -2q10 231 163.5 392t384.5 161q139 0 234.5 -63.5t95.5 -186.5q0 -74 -50 -142.5t-110 -111.5q-160 -113 -159.5 -174t53.5 -100t129 -69t152.5 -67.5t130 -111.5t53.5 -178q0 -162 -124 -265.5t-282.5 -103.5t-265 61.5t-106.5 180.5 q0 74 54 120t132 46q16 0 41 -4q-6 -29 -6 -48q0 -84 50 -132t124 -48t110.5 41t36.5 108.5t-54 118t-131 80t-152.5 62.5t-130 92t-54.5 134t51 140.5t111 112.5q164 127 164 195.5t-40 102.5t-122 34t-148 -45q-104 -125 -104 -346l16 -1221q0 -133 -157 -133 q-53 0 -140 25q68 268 68 694q0 37 -18 479q-100 -6 -160 -35q-25 45 -25 94.5z" />
<glyph unicode="&#xe0;" d="M41 391q0 262 145.5 460t377.5 198t478 -84q-55 -236 -55 -472.5t53 -467.5q-74 -25 -151.5 -25t-108 46t-30.5 133t26 239q-145 -311 -280 -393q-61 -37 -127 -37q-156 0 -242 115.5t-86 287.5zM291 457q0 -94 29.5 -190.5t91.5 -96.5q72 0 184 211t178 461 q-109 33 -184 32q-154 0 -230 -67q-70 -172 -69 -350zM303 1419q0 57 56.5 87t138.5 30q100 -185 284 -287q-16 -78 -84 -78q-90 0 -242.5 83t-152.5 165z" />
<glyph unicode="&#xe1;" d="M41 391q0 262 145.5 460t377.5 198t478 -84q-55 -236 -55 -472.5t53 -467.5q-74 -25 -151.5 -25t-108 46t-30.5 133t26 239q-145 -311 -280 -393q-61 -37 -127 -37q-156 0 -242 115.5t-86 287.5zM291 457q0 -94 29.5 -190.5t91.5 -96.5q72 0 184 211t178 461 q-109 33 -184 32q-154 0 -230 -67q-70 -172 -69 -350zM471 1249q184 102 285 287q82 0 138 -29.5t56 -87.5q0 -82 -152.5 -165t-242.5 -83q-68 0 -84 78z" />
<glyph unicode="&#xe2;" d="M41 391q0 262 145.5 460t377.5 198t478 -84q-55 -236 -55 -472.5t53 -467.5q-74 -25 -151.5 -25t-108 46t-30.5 133t26 239q-145 -311 -280 -393q-61 -37 -127 -37q-156 0 -242 115.5t-86 287.5zM244 1229q88 68 127 114t80 100t43 56q61 78 145 78q59 -104 155.5 -207.5 t172.5 -140.5q-27 -57 -75 -57.5t-142.5 51t-171.5 112.5q-186 -164 -247 -164t-87 58zM291 457q0 -94 29.5 -190.5t91.5 -96.5q72 0 184 211t178 461q-109 33 -184 32q-154 0 -230 -67q-70 -172 -69 -350z" />
<glyph unicode="&#xe3;" d="M41 391q0 262 145.5 460t377.5 198t478 -84q-55 -236 -55 -472.5t53 -467.5q-74 -25 -151.5 -25t-108 46t-30.5 133t26 239q-145 -311 -280 -393q-61 -37 -127 -37q-156 0 -242 115.5t-86 287.5zM213 1299.5q0 50.5 55.5 92.5t135 42t199.5 -30t198 -29.5t137 61.5 q20 -39 20 -93.5t-51 -102.5t-117.5 -48t-202.5 40t-215 40t-139 -62q-20 39 -20 89.5zM291 457q0 -94 29.5 -190.5t91.5 -96.5q72 0 184 211t178 461q-109 33 -184 32q-154 0 -230 -67q-70 -172 -69 -350z" />
<glyph unicode="&#xe4;" d="M41 391q0 262 145.5 460t377.5 198t478 -84q-55 -236 -55 -472.5t53 -467.5q-74 -25 -151.5 -25t-108 46t-30.5 133t26 239q-145 -311 -280 -393q-61 -37 -127 -37q-156 0 -242 115.5t-86 287.5zM246 1383.5q0 54.5 16 103.5q53 25 121 24q102 0 102 -106 q0 -57 -38.5 -95t-91 -38t-81 28.5t-28.5 83zM291 457q0 -94 29.5 -190.5t91.5 -96.5q72 0 184 211t178 461q-109 33 -184 32q-154 0 -230 -67q-70 -172 -69 -350zM705 1383.5q0 54.5 16 103.5q51 25 121 24q102 0 102 -106q0 -57 -39 -95t-91 -38t-80.5 28.5t-28.5 83z" />
<glyph unicode="&#xe5;" d="M41 391q0 262 145.5 460t377.5 198t478 -84q-55 -236 -55 -472.5t53 -467.5q-74 -25 -151.5 -25t-108 46t-30.5 133t26 239q-145 -311 -280 -393q-61 -37 -127 -37q-156 0 -242 115.5t-86 287.5zM291 457q0 -94 29.5 -190.5t91.5 -96.5q72 0 184 211t178 461 q-109 33 -184 32q-154 0 -230 -67q-70 -172 -69 -350zM395 1336.5q0 76.5 57.5 134t135.5 57.5t122 -47t44 -123t-59.5 -131.5t-134.5 -55.5t-120 44.5t-45 121zM506 1359q0 -32 22.5 -55.5t52 -23.5t47 16.5t17.5 46t-23.5 54t-54 24.5t-51.5 -12q-10 -18 -10 -50z" />
<glyph unicode="&#xe6;" horiz-adv-x="1644" d="M72 251q0 124 115.5 227.5t328.5 103.5q104 0 223 -29q14 70 15 137q0 199 -211 199q-82 0 -178 -37q-43 -74 -43 -145q0 -29 6 -60q-45 -23 -97.5 -22.5t-88.5 25t-36 73.5q0 143 158 240.5t343.5 97.5t271.5 -119q135 119 310 119t272.5 -73t97.5 -225.5t-138.5 -229 t-337.5 -76.5q-70 0 -143 8q0 -147 47 -232.5t157.5 -85.5t173 75t62.5 181q70 0 121 -34.5t51 -96.5q0 -127 -135 -212t-284 -85q-311 0 -402 230q-59 -104 -164.5 -161.5t-221.5 -57.5t-194.5 70.5t-78.5 194.5zM330 264q0 -53 19.5 -92t62.5 -39q76 0 174 96.5t125 200.5 q-76 20 -169 20.5t-163 -22.5q-49 -63 -49 -164zM942 627q61 -12 129 -13q145 0 248 56q12 49 12 78q0 72 -51 108.5t-140 36.5t-161 -57q-37 -107 -37 -209z" />
<glyph unicode="&#xe7;" horiz-adv-x="1015" d="M61 428q0 266 149.5 449.5t397.5 183.5q141 0 229.5 -56.5t88.5 -166.5q0 -72 -57.5 -128.5t-129.5 -56.5q-16 0 -41 4q6 27 7 48q0 74 -39 125t-129.5 51t-167.5 -74q-55 -143 -56 -358q0 -293 222 -293q119 0 177 76.5t58 173.5q70 0 121 -35t51 -97 q0 -121 -114.5 -200.5t-262.5 -93.5q-41 -41 -41 -101q45 20 106.5 20.5t98.5 -42.5t37 -115q0 -111 -76 -182.5t-188 -71.5q-72 0 -116 34t-44 101q0 25 14 53q53 -33 113.5 -32.5t96.5 20t36 53.5q0 57 -80 58q-41 -1 -78 -21q-35 55 -34.5 117.5t30.5 108.5 q-182 18 -280.5 133.5t-98.5 314.5z" />
<glyph unicode="&#xe8;" horiz-adv-x="1015" d="M61 475q0 248 140.5 417t373.5 169q160 0 257.5 -73t97.5 -225.5t-138.5 -229t-336.5 -76.5q-70 0 -144 8q0 -147 47.5 -232.5t158 -85.5t173 75t62.5 181q70 0 121 -34.5t51 -96.5q0 -127 -135.5 -212t-284.5 -85q-233 0 -338 126t-105 374zM266 1419q0 57 56.5 87 t138.5 30q100 -185 284 -287q-16 -78 -83 -78q-90 0 -243 83t-153 165zM313 627q61 -12 129 -13q147 0 248 56q12 49 12 78q0 72 -51 108.5t-140 36.5t-161 -57q-37 -107 -37 -209z" />
<glyph unicode="&#xe9;" horiz-adv-x="1015" d="M61 475q0 248 140.5 417t373.5 169q160 0 257.5 -73t97.5 -225.5t-138.5 -229t-336.5 -76.5q-70 0 -144 8q0 -147 47.5 -232.5t158 -85.5t173 75t62.5 181q70 0 121 -34.5t51 -96.5q0 -127 -135.5 -212t-284.5 -85q-233 0 -338 126t-105 374zM313 627q61 -12 129 -13 q147 0 248 56q12 49 12 78q0 72 -51 108.5t-140 36.5t-161 -57q-37 -107 -37 -209zM418 1249q184 102 284 287q82 0 138.5 -29.5t56.5 -87.5q0 -82 -152.5 -165t-242.5 -83q-68 0 -84 78z" />
<glyph unicode="&#xea;" horiz-adv-x="1015" d="M61 475q0 248 140.5 417t373.5 169q160 0 257.5 -73t97.5 -225.5t-138.5 -229t-336.5 -76.5q-70 0 -144 8q0 -147 47.5 -232.5t158 -85.5t173 75t62.5 181q70 0 121 -34.5t51 -96.5q0 -127 -135.5 -212t-284.5 -85q-233 0 -338 126t-105 374zM211 1229q88 68 127 114 t80 100t43 56q61 78 145 78q59 -104 155.5 -207.5t172.5 -140.5q-27 -57 -75 -57.5t-142 51t-172 112.5q-186 -164 -246.5 -164t-87.5 58zM313 627q61 -12 129 -13q147 0 248 56q12 49 12 78q0 72 -51 108.5t-140 36.5t-161 -57q-37 -107 -37 -209z" />
<glyph unicode="&#xeb;" horiz-adv-x="1015" d="M61 475q0 248 140.5 417t373.5 169q160 0 257.5 -73t97.5 -225.5t-138.5 -229t-336.5 -76.5q-70 0 -144 8q0 -147 47.5 -232.5t158 -85.5t173 75t62.5 181q70 0 121 -34.5t51 -96.5q0 -127 -135.5 -212t-284.5 -85q-233 0 -338 126t-105 374zM211 1383.5q0 54.5 16 103.5 q53 25 121 24q102 0 103 -106q0 -57 -39 -95t-91.5 -38t-81 28.5t-28.5 83zM313 627q61 -12 129 -13q147 0 248 56q12 49 12 78q0 72 -51 108.5t-140 36.5t-161 -57q-37 -107 -37 -209zM670 1383.5q0 54.5 16 103.5q51 25 121 24q102 0 102 -106q0 -57 -39 -95t-91 -38 t-80.5 28.5t-28.5 83z" />
<glyph unicode="&#xec;" horiz-adv-x="544" d="M-31 1419q0 57 56.5 87t138.5 30q101 -185 285 -287q-16 -78 -84 -78q-90 0 -243 83t-153 165zM123 121q0 51 28.5 214t28.5 263q0 273 -37 420q66 18 132.5 18t112.5 -40t46 -102.5t-26.5 -220t-26.5 -321.5t37 -340q-66 -25 -139 -24q-156 0 -156 133z" />
<glyph unicode="&#xed;" horiz-adv-x="544" d="M115 1249q184 102 284 287q82 0 138.5 -29.5t56.5 -87.5q0 -82 -152.5 -165t-242.5 -83q-68 0 -84 78zM123 121q0 51 28.5 214t28.5 263q0 273 -37 420q66 18 132.5 18t112.5 -40t46 -102.5t-26.5 -220t-26.5 -321.5t37 -340q-66 -25 -139 -24q-156 0 -156 133z" />
<glyph unicode="&#xee;" horiz-adv-x="544" d="M-63 1229q88 68 126.5 114t79.5 100t43 56q61 78 146 78q59 -104 155 -207.5t172 -140.5q-27 -57 -74.5 -57.5t-142 51t-172.5 112.5q-186 -164 -246.5 -164t-86.5 58zM123 121q0 51 28.5 214t28.5 263q0 273 -37 420q66 18 132.5 18t112.5 -40t46 -102.5t-26.5 -220 t-26.5 -321.5t37 -340q-66 -25 -139 -24q-156 0 -156 133z" />
<glyph unicode="&#xef;" horiz-adv-x="544" d="M-57 1383.5q0 54.5 16 103.5q53 25 121 24q102 0 102 -106q0 -57 -39 -95t-91 -38t-80.5 28.5t-28.5 83zM123 121q0 51 28.5 214t28.5 263q0 273 -37 420q66 18 132.5 18t112.5 -40t46 -102.5t-26.5 -220t-26.5 -321.5t37 -340q-66 -25 -139 -24q-156 0 -156 133z M401.5 1383.5q0.5 54.5 16.5 103.5q53 25 121 24q102 0 102 -106q0 -57 -39 -95t-91 -38t-81 28.5t-28.5 83z" />
<glyph unicode="&#xf0;" horiz-adv-x="1101" d="M61 469q0 231 150.5 389t396.5 158q68 0 144 -15q-35 127 -121 207q-147 -76 -199 -149q-35 0 -60.5 22.5t-25.5 61.5t40 74.5t122 82.5q-119 50 -211 50q0 80 45 133t119 53q137 0 284 -119q98 55 144 119q35 0 60.5 -22.5t25.5 -55.5q0 -78 -123 -149 q188 -244 188 -608.5t-131 -551t-385 -186.5q-213 0 -338 137.5t-125 368.5zM315.5 489.5q-0.5 -155.5 53 -258t156 -102.5t204.5 74q80 152 80 415q0 126 -18 183q-129 31 -241 30.5t-181 -55.5q-53 -131 -53.5 -286.5z" />
<glyph unicode="&#xf1;" horiz-adv-x="1200" d="M113 1012q66 25 139.5 24.5t119.5 -43.5t46 -106.5t-17 -202.5q78 145 203 255t250 110q207 -1 207 -222l-21 -450q0 -186 58 -365q-57 -25 -131 -24q-174 0 -174 194q0 88 22.5 296t22.5 261q0 102 -93 103q-68 0 -152.5 -97.5t-145 -217t-70.5 -197.5q8 -160 41 -305 q-66 -25 -136.5 -25t-114.5 34t-44 94t18.5 217t18.5 311.5t-47 355.5zM233.5 1334.5q-0.5 50.5 55 92.5t135.5 42t199.5 -30t197.5 -29.5t137 61.5q20 -39 20.5 -93.5t-51 -102.5t-118 -48t-202.5 40t-215 40t-138 -62q-20 39 -20.5 89.5z" />
<glyph unicode="&#xf2;" horiz-adv-x="1105" d="M70 476.5q0 236.5 141 410.5t362 174q455 0 455 -512q0 -240 -147.5 -407t-372.5 -167t-331.5 132.5t-106.5 369zM229 1419q0 57 56.5 87t138.5 30q101 -185 285 -287q-16 -78 -84 -78q-90 0 -243 83t-153 165zM323.5 598q0.5 -119 8.5 -184.5t30 -130.5 q47 -133 185.5 -133t182.5 73.5t44 227.5q0 436 -207 436q-119 0 -207 -51q-37 -119 -36.5 -238z" />
<glyph unicode="&#xf3;" horiz-adv-x="1105" d="M70 476.5q0 236.5 141 410.5t362 174q455 0 455 -512q0 -240 -147.5 -407t-372.5 -167t-331.5 132.5t-106.5 369zM323.5 598q0.5 -119 8.5 -184.5t30 -130.5q47 -133 185.5 -133t182.5 73.5t44 227.5q0 436 -207 436q-119 0 -207 -51q-37 -119 -36.5 -238zM430 1249 q184 102 285 287q82 0 138 -29.5t56 -87.5q0 -82 -152.5 -165t-242.5 -83q-68 0 -84 78z" />
<glyph unicode="&#xf4;" horiz-adv-x="1105" d="M70 476.5q0 236.5 141 410.5t362 174q455 0 455 -512q0 -240 -147.5 -407t-372.5 -167t-331.5 132.5t-106.5 369zM221 1229q88 68 127 114t80 100t43 56q61 78 145 78q59 -104 155.5 -207.5t172.5 -140.5q-27 -57 -75 -57.5t-142 51t-172 112.5q-186 -164 -246.5 -164 t-87.5 58zM323.5 598q0.5 -119 8.5 -184.5t30 -130.5q47 -133 185.5 -133t182.5 73.5t44 227.5q0 436 -207 436q-119 0 -207 -51q-37 -119 -36.5 -238z" />
<glyph unicode="&#xf5;" horiz-adv-x="1105" d="M70 476.5q0 236.5 141 410.5t362 174q455 0 455 -512q0 -240 -147.5 -407t-372.5 -167t-331.5 132.5t-106.5 369zM199 1299.5q0 50.5 55 92.5t135 42t200 -30t198 -29.5t137 61.5q20 -39 20 -93.5t-51 -102.5t-117.5 -48t-203 40t-215 40t-138.5 -62q-20 39 -20 89.5z M323.5 598q0.5 -119 8.5 -184.5t30 -130.5q47 -133 185.5 -133t182.5 73.5t44 227.5q0 436 -207 436q-119 0 -207 -51q-37 -119 -36.5 -238z" />
<glyph unicode="&#xf6;" horiz-adv-x="1105" d="M70 476.5q0 236.5 141 410.5t362 174q455 0 455 -512q0 -240 -147.5 -407t-372.5 -167t-331.5 132.5t-106.5 369zM215 1383.5q0 54.5 16 103.5q51 25 121 24q102 0 103 -106q0 -57 -39 -95t-91.5 -38t-81 28.5t-28.5 83zM323.5 598q0.5 -119 8.5 -184.5t30 -130.5 q47 -133 185.5 -133t182.5 73.5t44 227.5q0 436 -207 436q-119 0 -207 -51q-37 -119 -36.5 -238zM674 1383.5q0 54.5 16 103.5q53 25 121 24q102 0 102 -106q0 -57 -38.5 -95t-91 -38t-81 28.5t-28.5 83z" />
<glyph unicode="&#xf7;" horiz-adv-x="1075" d="M112.5 493.5q0.5 57.5 45.5 93.5t101 36t177 -15.5t259.5 -15.5t242.5 31q25 -41 25 -98.5t-45.5 -93.5t-101.5 -36t-170 15.5t-255 15.5t-254 -31q-25 41 -24.5 98.5zM407.5 170q-0.5 47 28.5 129q61 29 121 29q111 0 111 -115q0 -59 -42 -102t-96.5 -43t-88 27.5 t-34 74.5zM407.5 797q-0.5 47 28.5 129q61 29 121 28q111 0 111 -114q0 -59 -42 -102.5t-96.5 -43.5t-88 28t-34 75z" />
<glyph unicode="&#xf8;" horiz-adv-x="1105" d="M70 462q0 251 141 425t362 174q129 0 222 -41q18 39 48.5 61.5t61.5 22.5q66 0 103 -45q-29 -31 -97 -125q117 -129 117 -378t-148.5 -421t-377.5 -172q-106 0 -195 37q-47 -72 -112.5 -72t-98.5 45q54 50 99 107q-125 131 -125 382zM319 552q0 -171 35 -271 q113 150 175.5 251t168.5 302q-47 61 -131 61q-121 0 -211 -51q-37 -121 -37 -292zM418 178q53 -49 139 -49q131 0 176 80t45 238.5t-22 257.5q-70 -107 -123 -193q-125 -188 -215 -334z" />
<glyph unicode="&#xf9;" horiz-adv-x="1171" d="M133 1012q57 25 141 24q164 0 164 -182q0 -102 -22.5 -287.5t-22.5 -269.5q0 -102 92 -102q55 0 130 93t129.5 208.5t64.5 189.5q-12 225 -35 326q66 25 134.5 24.5t114.5 -43.5t46 -106.5t-18.5 -211t-18.5 -308t37 -342.5q-80 -25 -143 -25q-127 0 -127 168 q0 74 16 205q-82 -174 -199.5 -279.5t-238.5 -105.5q-207 0 -207 221l20 426q0 199 -57 377zM238 1419q0 57 56 87t138 30q101 -185 285 -287q-16 -78 -84 -78q-90 0 -242.5 83t-152.5 165z" />
<glyph unicode="&#xfa;" horiz-adv-x="1171" d="M133 1012q57 25 141 24q164 0 164 -182q0 -102 -22.5 -287.5t-22.5 -269.5q0 -102 92 -102q55 0 130 93t129.5 208.5t64.5 189.5q-12 225 -35 326q66 25 134.5 24.5t114.5 -43.5t46 -106.5t-18.5 -211t-18.5 -308t37 -342.5q-80 -25 -143 -25q-127 0 -127 168 q0 74 16 205q-82 -174 -199.5 -279.5t-238.5 -105.5q-207 0 -207 221l20 426q0 199 -57 377zM432 1249q184 102 285 287q82 0 138 -29.5t56 -87.5q0 -82 -152.5 -165t-242.5 -83q-68 0 -84 78z" />
<glyph unicode="&#xfb;" horiz-adv-x="1171" d="M133 1012q57 25 141 24q164 0 164 -182q0 -102 -22.5 -287.5t-22.5 -269.5q0 -102 92 -102q55 0 130 93t129.5 208.5t64.5 189.5q-12 225 -35 326q66 25 134.5 24.5t114.5 -43.5t46 -106.5t-18.5 -211t-18.5 -308t37 -342.5q-80 -25 -143 -25q-127 0 -127 168 q0 74 16 205q-82 -174 -199.5 -279.5t-238.5 -105.5q-207 0 -207 221l20 426q0 199 -57 377zM223 1229q88 68 127 114t80 100t43 56q61 78 145 78q59 -104 155.5 -207.5t172.5 -140.5q-27 -57 -75 -57.5t-142 51t-172 112.5q-186 -164 -246.5 -164t-87.5 58z" />
<glyph unicode="&#xfc;" horiz-adv-x="1171" d="M133 1012q57 25 141 24q164 0 164 -182q0 -102 -22.5 -287.5t-22.5 -269.5q0 -102 92 -102q55 0 130 93t129.5 208.5t64.5 189.5q-12 225 -35 326q66 25 134.5 24.5t114.5 -43.5t46 -106.5t-18.5 -211t-18.5 -308t37 -342.5q-80 -25 -143 -25q-127 0 -127 168 q0 74 16 205q-82 -174 -199.5 -279.5t-238.5 -105.5q-207 0 -207 221l20 426q0 199 -57 377zM250 1383.5q0 54.5 16 103.5q51 25 121 24q102 0 102 -106q0 -57 -38.5 -95t-91 -38t-81 28.5t-28.5 83zM709 1383.5q0 54.5 16 103.5q53 25 121 24q102 0 102 -106q0 -57 -39 -95 t-91 -38t-80.5 28.5t-28.5 83z" />
<glyph unicode="&#xfd;" horiz-adv-x="1181" d="M143 1012q57 25 140 24q166 0 166 -182q0 -82 -23 -231.5t-23 -206t2.5 -82t8.5 -60.5q14 -70 82.5 -69.5t147.5 110t127 242.5t48 211q-10 162 -35 244q66 25 134.5 24.5t114.5 -43.5t46 -114q0 -1118 -409 -1342q-92 -49 -209 -49t-204 61.5t-87 171.5q0 74 55.5 124.5 t130.5 50.5q16 0 41 -5q-6 -27 -6 -47q0 -180 125 -180q76 0 137.5 82t96.5 201q74 242 73 438q-61 -166 -166.5 -267.5t-228.5 -101.5q-248 0 -248 324l21 295q0 199 -58 377zM453 1249q184 102 284 287q82 0 138.5 -29.5t56.5 -87.5q0 -82 -152.5 -165t-242.5 -83 q-68 0 -84 78z" />
<glyph unicode="&#xfe;" horiz-adv-x="1181" d="M113 -338q0 152 31.5 478.5t31.5 521.5q0 463 -31 849q66 25 133.5 25t116.5 -47t49 -119q0 -123 -24.5 -386t-30.5 -357q94 188 208 305t259 117t205.5 -114t60.5 -288q0 -250 -147.5 -454.5t-370.5 -204.5q-127 0 -231 41q4 -281 35 -514q-66 -25 -135.5 -25t-114.5 46 t-45 126zM381 201q82 -31 193.5 -31t195.5 43q100 172 100 412.5t-84 240.5q-104 0 -234 -210.5t-171 -454.5z" />
<glyph unicode="&#xff;" horiz-adv-x="1181" d="M143 1012q57 25 140 24q166 0 166 -182q0 -82 -23 -231.5t-23 -206t2.5 -82t8.5 -60.5q14 -70 82.5 -69.5t147.5 110t127 242.5t48 211q-10 162 -35 244q66 25 134.5 24.5t114.5 -43.5t46 -114q0 -1118 -409 -1342q-92 -49 -209 -49t-204 61.5t-87 171.5q0 74 55.5 124.5 t130.5 50.5q16 0 41 -5q-6 -27 -6 -47q0 -180 125 -180q76 0 137.5 82t96.5 201q74 242 73 438q-61 -166 -166.5 -267.5t-228.5 -101.5q-248 0 -248 324l21 295q0 199 -58 377zM260 1383.5q0 54.5 16 103.5q51 25 121 24q102 0 103 -106q0 -57 -39 -95t-91.5 -38t-81 28.5 t-28.5 83zM719 1383.5q0 54.5 16 103.5q53 25 121 24q102 0 102 -106q0 -57 -38.5 -95t-91 -38t-81 28.5t-28.5 83z" />
<glyph unicode="&#x152;" horiz-adv-x="2054" d="M61 691.5q0 320.5 192.5 554t504.5 233.5q221 0 364 -148l-16 123q123 -12 246 -12q356 0 590 37q25 -45 24.5 -107.5t-48.5 -111t-118.5 -48.5t-225.5 20.5t-228 20.5q-16 -207 -19 -389q129 -12 277.5 -12t255.5 43q25 -45 24.5 -107.5t-48.5 -112.5t-114.5 -50 t-197.5 25.5t-199 25.5q0 -324 14 -475q98 -8 154 -8q270 0 475 90q25 -55 25 -125t-48.5 -120t-117.5 -50q-201 0 -619 24q-37 2 -65.5 23.5t-28.5 54.5v92q-180 -207 -460.5 -207t-436.5 198t-156 518.5zM332 700q0 -242 98 -387t311 -145q117 0 199 94q145 170 145 483 q0 244 -99 394.5t-310 150.5q-127 0 -225 -82q-55 -86 -87 -231.5t-32 -276.5z" />
<glyph unicode="&#x153;" horiz-adv-x="1685" d="M41 475.5q0 237.5 141.5 411.5t373.5 174t341 -143q143 143 348 143q160 0 257 -73t97 -225.5t-138 -229t-337 -76.5q-70 0 -143 8q0 -328 215 -328q100 0 162.5 75t62.5 181q70 0 121 -34.5t51 -96.5q0 -127 -136 -213t-283 -86q-240 0 -349 143q-147 -143 -359 -143 t-318.5 137.5t-106.5 375zM295 598q0 -119 8 -186.5t31 -132.5q47 -141 185 -141.5t182 78.5t44 235q0 436 -206 436q-119 0 -207 -51q-37 -119 -37 -238zM983 627q61 -12 129 -13q145 0 248 56q12 49 12 78q0 72 -51 108.5t-140 36.5t-161 -57q-37 -107 -37 -209z" />
<glyph unicode="&#x178;" horiz-adv-x="1189" d="M10 1348q49 106 180 106q244 0 461 -700q127 190 218.5 387.5t91.5 324.5q217 0 217 -114q0 -80 -98.5 -238t-212 -324.5t-134.5 -244.5q-6 -80 -6 -197t29 -323q-66 -25 -139.5 -25t-128 47t-54.5 120t25 372q-158 614 -449 809zM303 1793q0 54 16 103q51 25 121 25 q102 0 103 -106q0 -57 -39 -95.5t-91.5 -38.5t-81 29t-28.5 83zM762 1793q0 54 16 103q51 25 121 25q102 0 102 -106q0 -57 -38.5 -95.5t-91 -38.5t-81 29t-28.5 83z" />
<glyph unicode="&#x2c6;" horiz-adv-x="927" d="M102 1229q88 68 127 114t80 100t43 56q61 78 146 78q59 -104 155 -207.5t172 -140.5q-27 -57 -75 -57.5t-142 51t-172 112.5q-186 -164 -246.5 -164t-87.5 58z" />
<glyph unicode="&#x2dc;" horiz-adv-x="1034" d="M143.5 1299.5q-0.5 50.5 55 92.5t135.5 42t199.5 -30t197.5 -29.5t137 61.5q20 -39 20.5 -93.5t-51 -102.5t-118 -48t-202.5 40t-215 40t-138 -62q-20 39 -20.5 89.5z" />
<glyph unicode="&#x2000;" horiz-adv-x="993" />
<glyph unicode="&#x2001;" horiz-adv-x="1987" />
<glyph unicode="&#x2002;" horiz-adv-x="993" />
<glyph unicode="&#x2003;" horiz-adv-x="1987" />
<glyph unicode="&#x2004;" horiz-adv-x="662" />
<glyph unicode="&#x2005;" horiz-adv-x="496" />
<glyph unicode="&#x2006;" horiz-adv-x="331" />
<glyph unicode="&#x2007;" horiz-adv-x="331" />
<glyph unicode="&#x2008;" horiz-adv-x="248" />
<glyph unicode="&#x2009;" horiz-adv-x="397" />
<glyph unicode="&#x200a;" horiz-adv-x="110" />
<glyph unicode="&#x2010;" horiz-adv-x="993" d="M112.5 494.5q0.5 56.5 46.5 92.5t100 36t194.5 -16.5t242 -16.5t160.5 33q25 -43 25 -99.5t-46.5 -92.5t-100.5 -36t-194.5 16.5t-241.5 16.5t-161 -33q-25 43 -24.5 99.5z" />
<glyph unicode="&#x2011;" horiz-adv-x="993" d="M112.5 494.5q0.5 56.5 46.5 92.5t100 36t194.5 -16.5t242 -16.5t160.5 33q25 -43 25 -99.5t-46.5 -92.5t-100.5 -36t-194.5 16.5t-241.5 16.5t-161 -33q-25 43 -24.5 99.5z" />
<glyph unicode="&#x2012;" horiz-adv-x="993" d="M112.5 494.5q0.5 56.5 46.5 92.5t100 36t194.5 -16.5t242 -16.5t160.5 33q25 -43 25 -99.5t-46.5 -92.5t-100.5 -36t-194.5 16.5t-241.5 16.5t-161 -33q-25 43 -24.5 99.5z" />
<glyph unicode="&#x2013;" horiz-adv-x="1177" d="M112.5 493.5q0.5 57.5 45.5 93.5t104.5 36t193.5 -15.5t295.5 -15.5t288.5 31q25 -41 25 -98.5t-45 -93.5t-104.5 -36t-193.5 15.5t-295 15.5t-290 -31q-25 41 -24.5 98.5z" />
<glyph unicode="&#x2014;" horiz-adv-x="1792" d="M112.5 493.5q0.5 57.5 45.5 93.5t119.5 36t312 -15.5t535 -15.5t530.5 31q25 -41 24.5 -98.5t-44.5 -93.5t-120.5 -36t-313 15.5t-533.5 15.5t-531 -31q-25 41 -24.5 98.5z" />
<glyph unicode="&#x2018;" horiz-adv-x="622" d="M102 1053q0 139 100.5 269t227.5 130q51 0 90 -33q-80 -39 -122 -86t-64 -123q90 -27 90 -120q0 -57 -37 -154q-66 -33 -135.5 -33t-109.5 40t-40 110z" />
<glyph unicode="&#x2019;" horiz-adv-x="622" d="M102 938q80 39 122 86t65 123q-90 27 -90 121q0 57 37 153q66 33 135 33t109 -40t40 -109q0 -139 -100.5 -269.5t-226.5 -130.5q-52 0 -91 33z" />
<glyph unicode="&#x201a;" horiz-adv-x="514" d="M102 -55q76 135 76 268q0 47 -8 88q66 14 109 14q133 0 133 -114q0 -86 -81 -189.5t-161 -103.5q-43 0 -68 37z" />
<glyph unicode="&#x201c;" horiz-adv-x="1032" d="M102 1053q0 139 100.5 269t227.5 130q51 0 90 -33q-80 -39 -122 -86t-64 -123q90 -27 90 -120q0 -57 -37 -154q-66 -33 -135.5 -33t-109.5 40t-40 110zM512 1053q0 139 100.5 269t227.5 130q51 0 90 -33q-80 -39 -122 -86t-65 -123q90 -27 91 -120q0 -57 -37 -154 q-66 -33 -135.5 -33t-109.5 40t-40 110z" />
<glyph unicode="&#x201d;" horiz-adv-x="1032" d="M102 938q80 39 122 86t65 123q-90 27 -90 121q0 57 37 153q66 33 135 33t109 -40t40 -109q0 -139 -100.5 -269.5t-226.5 -130.5q-52 0 -91 33zM512 938q80 39 122 86t64 123q-90 27 -90 121q0 57 37 153q66 33 135.5 33t109.5 -40t40 -109q0 -139 -100.5 -269.5 t-227.5 -130.5q-51 0 -90 33z" />
<glyph unicode="&#x201e;" horiz-adv-x="929" d="M102 -55q76 135 76 268q0 47 -8 88q66 14 109 14q133 0 133 -114q0 -86 -81 -189.5t-161 -103.5q-43 0 -68 37zM518 -55q76 135 76 268q0 47 -8 88q63 14 108 14q133 0 133 -114q0 -86 -80.5 -189.5t-160.5 -103.5q-43 0 -68 37z" />
<glyph unicode="&#x2022;" horiz-adv-x="686" d="M102.5 474.5q0.5 93.5 55.5 232.5q109 51 214 51t158.5 -56.5t53.5 -163t-77 -184.5t-178.5 -78t-164 52.5t-62 146z" />
<glyph unicode="&#x202f;" horiz-adv-x="397" />
<glyph unicode="&#x2039;" horiz-adv-x="956" d="M102 608q510 322 672 482q80 -23 80 -92.5t-101.5 -170t-283.5 -239.5q180 -231 377 -350q-18 -82 -115.5 -82t-282 140t-346.5 312z" />
<glyph unicode="&#x203a;" horiz-adv-x="956" d="M102 248q0 69 101.5 169.5t283.5 239.5q-179 232 -376 351q18 82 115.5 82t281.5 -140.5t346 -312.5q-510 -322 -672 -481q-80 23 -80 92z" />
<glyph unicode="&#x205f;" horiz-adv-x="496" />
<glyph unicode="&#x25fc;" horiz-adv-x="1034" d="M0 0v1034h1034v-1034h-1034z" />
</font>
</defs>
</svg>
